<mxfile host="Electron" modified="2024-09-04T13:25:42.389Z" agent="Mozilla/5.0 (X11; Linux x86_64) AppleWebKit/537.36 (KHTML, like Gecko) draw.io/21.6.5 Chrome/114.0.5735.243 Electron/25.3.1 Safari/537.36" etag="2RqwKbz_lIA-_5tuTq0j" version="21.6.5" type="device">
  <diagram name="Page-1" id="OHtc4gri3yKXVwVJEkOH">
    <mxGraphModel dx="669" dy="1456" grid="1" gridSize="10" guides="1" tooltips="1" connect="1" arrows="1" fold="1" page="1" pageScale="1" pageWidth="827" pageHeight="1169" math="0" shadow="0">
      <root>
        <mxCell id="0" />
        <mxCell id="1" parent="0" />
        <mxCell id="YGedQo93tGWXvLrGXiaz-30" value="&amp;nbsp; Internal&lt;br&gt;&amp;nbsp; Repr" style="rounded=0;whiteSpace=wrap;html=1;fillColor=#d5e8d4;strokeColor=#82b366;dashed=1;verticalAlign=top;align=left;" parent="1" vertex="1">
          <mxGeometry x="350" y="230" width="260" height="140" as="geometry" />
        </mxCell>
        <mxCell id="YGedQo93tGWXvLrGXiaz-29" value="Compile Targets" style="rounded=0;whiteSpace=wrap;html=1;fillColor=#f8cecc;strokeColor=#b85450;dashed=1;verticalAlign=bottom;" parent="1" vertex="1">
          <mxGeometry x="680" y="240" width="120" height="190" as="geometry" />
        </mxCell>
        <mxCell id="YGedQo93tGWXvLrGXiaz-1" value="Tree-Sitter&lt;br style=&quot;border-color: var(--border-color);&quot;&gt;AST" style="rounded=0;whiteSpace=wrap;html=1;fillColor=#fff2cc;strokeColor=#d6b656;" parent="1" vertex="1">
          <mxGeometry x="200" y="320" width="80" height="40" as="geometry" />
        </mxCell>
        <mxCell id="YGedQo93tGWXvLrGXiaz-2" value="&amp;nbsp; &amp;nbsp; &amp;nbsp;.sus" style="shape=note;whiteSpace=wrap;html=1;backgroundOutline=1;darkOpacity=0.05;" parent="1" vertex="1">
          <mxGeometry x="200" y="160" width="80" height="100" as="geometry" />
        </mxCell>
        <mxCell id="YGedQo93tGWXvLrGXiaz-3" value="" style="endArrow=classic;html=1;rounded=0;entryX=0.5;entryY=0;entryDx=0;entryDy=0;" parent="1" source="YGedQo93tGWXvLrGXiaz-2" target="YGedQo93tGWXvLrGXiaz-1" edge="1">
          <mxGeometry width="50" height="50" relative="1" as="geometry">
            <mxPoint x="200" y="430" as="sourcePoint" />
            <mxPoint x="250" y="380" as="targetPoint" />
          </mxGeometry>
        </mxCell>
        <mxCell id="YGedQo93tGWXvLrGXiaz-5" value="Parse with&lt;br style=&quot;border-color: var(--border-color);&quot;&gt;Tree-Sitter" style="edgeLabel;html=1;align=center;verticalAlign=middle;resizable=0;points=[];" parent="YGedQo93tGWXvLrGXiaz-3" vertex="1" connectable="0">
          <mxGeometry x="0.0667" relative="1" as="geometry">
            <mxPoint x="30" y="-2" as="offset" />
          </mxGeometry>
        </mxCell>
        <mxCell id="YGedQo93tGWXvLrGXiaz-4" value="Flattened" style="rounded=0;whiteSpace=wrap;html=1;fillColor=#fff2cc;strokeColor=#d6b656;" parent="1" vertex="1">
          <mxGeometry x="360" y="320" width="80" height="40" as="geometry" />
        </mxCell>
        <mxCell id="YGedQo93tGWXvLrGXiaz-8" value="" style="endArrow=classic;html=1;rounded=0;entryX=0;entryY=0.5;entryDx=0;entryDy=0;exitX=1;exitY=0.5;exitDx=0;exitDy=0;" parent="1" source="YGedQo93tGWXvLrGXiaz-1" target="YGedQo93tGWXvLrGXiaz-4" edge="1">
          <mxGeometry width="50" height="50" relative="1" as="geometry">
            <mxPoint x="280" y="340" as="sourcePoint" />
            <mxPoint x="360" y="340" as="targetPoint" />
          </mxGeometry>
        </mxCell>
        <mxCell id="YGedQo93tGWXvLrGXiaz-9" value="Flatten&lt;br&gt;Modules" style="edgeLabel;html=1;align=center;verticalAlign=middle;resizable=0;points=[];" parent="YGedQo93tGWXvLrGXiaz-8" vertex="1" connectable="0">
          <mxGeometry x="0.0667" relative="1" as="geometry">
            <mxPoint x="-13" y="19" as="offset" />
          </mxGeometry>
        </mxCell>
        <mxCell id="YGedQo93tGWXvLrGXiaz-11" value="Instantiated" style="rounded=0;whiteSpace=wrap;html=1;fillColor=#fff2cc;strokeColor=#d6b656;" parent="1" vertex="1">
          <mxGeometry x="520" y="320" width="80" height="40" as="geometry" />
        </mxCell>
        <mxCell id="YGedQo93tGWXvLrGXiaz-12" value="" style="endArrow=classic;html=1;rounded=0;entryX=0;entryY=0.5;entryDx=0;entryDy=0;exitX=1;exitY=0.5;exitDx=0;exitDy=0;" parent="1" target="YGedQo93tGWXvLrGXiaz-11" edge="1">
          <mxGeometry width="50" height="50" relative="1" as="geometry">
            <mxPoint x="440" y="340" as="sourcePoint" />
            <mxPoint x="520" y="340" as="targetPoint" />
          </mxGeometry>
        </mxCell>
        <mxCell id="YGedQo93tGWXvLrGXiaz-13" value="Instantiate&lt;br&gt;Modules" style="edgeLabel;html=1;align=center;verticalAlign=middle;resizable=0;points=[];labelBackgroundColor=#D5E8D4;" parent="YGedQo93tGWXvLrGXiaz-12" vertex="1" connectable="0">
          <mxGeometry x="0.0667" relative="1" as="geometry">
            <mxPoint x="-3" y="-16" as="offset" />
          </mxGeometry>
        </mxCell>
        <mxCell id="YGedQo93tGWXvLrGXiaz-14" value="- Wire Assignments&lt;br&gt;- Retains templates&lt;br&gt;- Generative code&lt;br style=&quot;font-size: 12px;&quot;&gt;- Name Resolution&lt;br style=&quot;font-size: 12px;&quot;&gt;- Type Checking" style="text;html=1;strokeColor=none;fillColor=none;align=left;verticalAlign=top;whiteSpace=wrap;rounded=0;spacing=2;fontSize=12;horizontal=1;labelPosition=center;verticalLabelPosition=middle;spacingBottom=0;spacingTop=0;" parent="1" vertex="1">
          <mxGeometry x="345" y="370" width="110" height="60" as="geometry" />
        </mxCell>
        <mxCell id="YGedQo93tGWXvLrGXiaz-15" value="- Wires and Multiplexers&lt;br&gt;- Latency Counting&lt;br&gt;- Hardware Verification&lt;br&gt;" style="text;html=1;strokeColor=none;fillColor=none;align=left;verticalAlign=top;whiteSpace=wrap;rounded=0;spacing=2;fontSize=12;horizontal=1;labelPosition=center;verticalLabelPosition=middle;spacingBottom=0;spacingTop=0;" parent="1" vertex="1">
          <mxGeometry x="490" y="370" width="170" height="70" as="geometry" />
        </mxCell>
        <mxCell id="YGedQo93tGWXvLrGXiaz-17" value="" style="endArrow=classic;html=1;rounded=0;entryX=0;entryY=0.5;entryDx=0;entryDy=0;exitX=1;exitY=0.5;exitDx=0;exitDy=0;entryPerimeter=0;" parent="1" target="YGedQo93tGWXvLrGXiaz-28" edge="1">
          <mxGeometry width="50" height="50" relative="1" as="geometry">
            <mxPoint x="600" y="340" as="sourcePoint" />
            <mxPoint x="680" y="300" as="targetPoint" />
          </mxGeometry>
        </mxCell>
        <mxCell id="YGedQo93tGWXvLrGXiaz-18" value="Custom&lt;br&gt;CodeGen" style="edgeLabel;html=1;align=center;verticalAlign=middle;resizable=0;points=[];" parent="YGedQo93tGWXvLrGXiaz-17" vertex="1" connectable="0">
          <mxGeometry x="0.0667" relative="1" as="geometry">
            <mxPoint x="-9" y="-2" as="offset" />
          </mxGeometry>
        </mxCell>
        <mxCell id="YGedQo93tGWXvLrGXiaz-20" value="Calyx" style="rounded=0;whiteSpace=wrap;html=1;dashed=1;" parent="1" vertex="1">
          <mxGeometry x="700" y="360" width="80" height="40" as="geometry" />
        </mxCell>
        <mxCell id="YGedQo93tGWXvLrGXiaz-21" value="G" style="endArrow=classic;html=1;rounded=0;entryX=0;entryY=0.5;entryDx=0;entryDy=0;exitX=1;exitY=0.5;exitDx=0;exitDy=0;dashed=1;" parent="1" source="YGedQo93tGWXvLrGXiaz-11" target="YGedQo93tGWXvLrGXiaz-20" edge="1">
          <mxGeometry width="50" height="50" relative="1" as="geometry">
            <mxPoint x="610" y="350" as="sourcePoint" />
            <mxPoint x="690" y="310" as="targetPoint" />
          </mxGeometry>
        </mxCell>
        <mxCell id="YGedQo93tGWXvLrGXiaz-22" value="Gen2Calyx" style="edgeLabel;html=1;align=center;verticalAlign=middle;resizable=0;points=[];" parent="YGedQo93tGWXvLrGXiaz-21" vertex="1" connectable="0">
          <mxGeometry x="0.0667" relative="1" as="geometry">
            <mxPoint x="-9" y="-1" as="offset" />
          </mxGeometry>
        </mxCell>
        <mxCell id="YGedQo93tGWXvLrGXiaz-28" value="Verilog" style="shape=note;whiteSpace=wrap;html=1;backgroundOutline=1;darkOpacity=0.05;" parent="1" vertex="1">
          <mxGeometry x="700" y="260" width="80" height="80" as="geometry" />
        </mxCell>
        <mxCell id="YGedQo93tGWXvLrGXiaz-31" value="Errors" style="rounded=0;whiteSpace=wrap;html=1;fillColor=#ffe6cc;strokeColor=#d79b00;" parent="1" vertex="1">
          <mxGeometry x="440" y="240" width="80" height="40" as="geometry" />
        </mxCell>
        <mxCell id="YGedQo93tGWXvLrGXiaz-34" value="LSP Server" style="rounded=0;whiteSpace=wrap;html=1;" parent="1" vertex="1">
          <mxGeometry x="410" y="150" width="140" height="40" as="geometry" />
        </mxCell>
        <mxCell id="YGedQo93tGWXvLrGXiaz-39" value="" style="endArrow=classic;html=1;rounded=0;exitX=1;exitY=0;exitDx=0;exitDy=0;endSize=6;entryX=0.25;entryY=1;entryDx=0;entryDy=0;" parent="1" source="YGedQo93tGWXvLrGXiaz-4" target="YGedQo93tGWXvLrGXiaz-31" edge="1">
          <mxGeometry width="50" height="50" relative="1" as="geometry">
            <mxPoint x="410" y="330" as="sourcePoint" />
            <mxPoint x="410" y="210" as="targetPoint" />
          </mxGeometry>
        </mxCell>
        <mxCell id="YGedQo93tGWXvLrGXiaz-40" value="" style="endArrow=classic;html=1;rounded=0;exitX=0;exitY=0;exitDx=0;exitDy=0;endSize=6;entryX=0.75;entryY=1;entryDx=0;entryDy=0;" parent="1" source="YGedQo93tGWXvLrGXiaz-11" target="YGedQo93tGWXvLrGXiaz-31" edge="1">
          <mxGeometry width="50" height="50" relative="1" as="geometry">
            <mxPoint x="450" y="330" as="sourcePoint" />
            <mxPoint x="470" y="290" as="targetPoint" />
          </mxGeometry>
        </mxCell>
        <mxCell id="YGedQo93tGWXvLrGXiaz-43" value="" style="endArrow=classic;html=1;rounded=0;exitX=1;exitY=0.5;exitDx=0;exitDy=0;entryX=0;entryY=0.5;entryDx=0;entryDy=0;" parent="1" source="YGedQo93tGWXvLrGXiaz-31" target="YGedQo93tGWXvLrGXiaz-45" edge="1">
          <mxGeometry width="50" height="50" relative="1" as="geometry">
            <mxPoint x="570" y="250" as="sourcePoint" />
            <mxPoint x="680" y="180" as="targetPoint" />
          </mxGeometry>
        </mxCell>
        <mxCell id="YGedQo93tGWXvLrGXiaz-45" value="CLI Diagnostics" style="rounded=0;whiteSpace=wrap;html=1;" parent="1" vertex="1">
          <mxGeometry x="700" y="180" width="80" height="40" as="geometry" />
        </mxCell>
        <mxCell id="YGedQo93tGWXvLrGXiaz-47" value="" style="shape=flexArrow;endArrow=classic;startArrow=classic;html=1;rounded=0;width=3.846153846153846;endSize=3.9365384615384613;endWidth=6.183431952662722;startWidth=6.183431952662722;startSize=3.9365384615384613;entryX=0.5;entryY=1;entryDx=0;entryDy=0;" parent="1" target="YGedQo93tGWXvLrGXiaz-53" edge="1">
          <mxGeometry width="100" height="100" relative="1" as="geometry">
            <mxPoint x="480" y="150" as="sourcePoint" />
            <mxPoint x="480" y="70" as="targetPoint" />
          </mxGeometry>
        </mxCell>
        <mxCell id="YGedQo93tGWXvLrGXiaz-52" value="- Error reporting&lt;br&gt;- Syntax highlighting&lt;br&gt;- Hover info&lt;br&gt;- Code completion&lt;br&gt;- etc" style="text;html=1;strokeColor=none;fillColor=none;align=left;verticalAlign=top;whiteSpace=wrap;rounded=0;spacing=2;fontSize=12;horizontal=1;labelPosition=center;verticalLabelPosition=middle;spacingBottom=0;spacingTop=0;" parent="1" vertex="1">
          <mxGeometry x="520" y="60" width="140" height="60" as="geometry" />
        </mxCell>
        <mxCell id="YGedQo93tGWXvLrGXiaz-53" value="" style="shape=image;verticalLabelPosition=bottom;labelBackgroundColor=default;verticalAlign=top;aspect=fixed;imageAspect=0;image=https://i.pinimg.com/originals/24/42/f8/2442f8e6dbd772f0cf1dad8d803399bc.png;" parent="1" vertex="1">
          <mxGeometry x="450" y="50" width="60" height="60" as="geometry" />
        </mxCell>
        <mxCell id="YGedQo93tGWXvLrGXiaz-54" value="" style="endArrow=classic;html=1;rounded=0;exitX=0.5;exitY=0;exitDx=0;exitDy=0;endSize=6;entryX=0.5;entryY=1;entryDx=0;entryDy=0;" parent="1" source="YGedQo93tGWXvLrGXiaz-30" target="YGedQo93tGWXvLrGXiaz-34" edge="1">
          <mxGeometry width="50" height="50" relative="1" as="geometry">
            <mxPoint x="450" y="330" as="sourcePoint" />
            <mxPoint x="470" y="290" as="targetPoint" />
          </mxGeometry>
        </mxCell>
        <mxCell id="YGedQo93tGWXvLrGXiaz-58" value="Planned" style="endArrow=none;html=1;rounded=0;dashed=1;endFill=0;" parent="1" edge="1">
          <mxGeometry y="10" width="50" height="50" relative="1" as="geometry">
            <mxPoint x="700" y="120" as="sourcePoint" />
            <mxPoint x="780" y="120" as="targetPoint" />
            <mxPoint as="offset" />
          </mxGeometry>
        </mxCell>
        <mxCell id="YGedQo93tGWXvLrGXiaz-60" value="Implemented" style="endArrow=none;html=1;rounded=0;endFill=0;" parent="1" edge="1">
          <mxGeometry y="10" width="50" height="50" relative="1" as="geometry">
            <mxPoint x="700" y="80" as="sourcePoint" />
            <mxPoint x="780" y="80" as="targetPoint" />
            <mxPoint as="offset" />
          </mxGeometry>
        </mxCell>
        <mxCell id="Dl_lnDmhUK-qMHkZTe4q-1" value="" style="shape=image;verticalLabelPosition=bottom;labelBackgroundColor=default;verticalAlign=top;aspect=fixed;imageAspect=0;image=data:image/svg+xml,PHN2ZyB4bWxucz0iaHR0cDovL3d3dy53My5vcmcvMjAwMC9zdmciIGlkPSJzdmcxIiB2ZXJzaW9uPSIxLjEiIHZpZXdCb3g9IjAgMCA0MjkuMzQ4NTcgMzQ1LjgzNjk0IiBoZWlnaHQ9IjM0NS44MzY5NG1tIiB3aWR0aD0iNDI5LjM0ODU3bW0iPiYjeGE7ICAmI3hhOyAgPGRlZnMgaWQ9ImRlZnMxIi8+JiN4YTsgIDxnIHRyYW5zZm9ybT0idHJhbnNsYXRlKDEwMC4xMTE0Myw5Ni44NDcwMjMpIiBpZD0ibGF5ZXIxIj4mI3hhOyAgICA8ZyBpZD0iZzEiPiYjeGE7ICAgICAgPHBhdGggZD0ibSAxODUuOTUzMTgsLTEwOC40NzI4NCBjIC0xNy4zMjI1NCwwLjQ1NDYgLTM0LjE4ODIyLDcuOTM3MzYgLTQ2LjYzMTE1LDE5LjkxMDYxIC0xLjEyNDkxLDEuMDYzNjggLTIuMjQzMDQsMi4xMzUyNSAtMy4zMDgzLDMuMjU5MzEgLTguNjI1NDMsLTcuMTU5NjMgLTE5LjA4ODUyLC0xMi40NDU0NyAtMzAuMzA1NzUsLTEzLjc4MzQ5IC0xMC45ODMwNCwtMS4zNTM0NyAtMjIuNDI4NDksMS41ODI2NCAtMzEuMzgxODcsOC4wOTEzMSAtOC45MTEzOCw2LjM1NSAtMTUuMzk3NCwxNS42MzMgLTE5LjY0NjM1LDI1LjYyNTM4IC0wLjc1NjI1LDEuNzc4OTEgLTEuNDMxOTUsMy41OTAyMyAtMi4wNDEwMyw1LjQyNDIzIC0zLjg0OTQxLC0wLjY2ODQ0IC03Ljc0MDMxLC0xLjA0OTg0IC0xMS42MjExLC0xLjQ4ODI5IC02LjEyNDc0LC0xMC40MTYxOCAtMTQuNzY5NjMsLTE5LjU4ODU0IC0yNS41Nzc5LC0yNS4xNzYyNyAtNS40Nzg1NiwtMi44NDYwOCAtMTEuNjMyNTYsLTQuNzI0NyAtMTcuODYwNTIsLTQuMzAzNDMgLTUuNDMyOTIsMC4yNDg3MSAtMTAuNjg5MjUsMS45MTczNSAtMTUuNjM5NCw0LjA4MTk1IC0wLjU4OTA5LDAuMDUyMyAtMS4wODU5MiwtMC41MTc1OSAtMS42Mzc5MywtMC43MTAyNiAtNi41OTUwMiwtMy41MTkyOCAtMTMuNjEzNTksLTYuNjYyMzggLTIxLjE0NTU4LC03LjMzNTQ3IC0xMi41MDI2OCwtMS4zNTk2IC0yNS4yNTEwNiwyLjI1Mjk5IC0zNS43NTIyNiw5LjAyMTk1IC0xMy43NDY5Miw4LjY3ODA1IC0yMy45MTIzNiwyMi42NDg1OCAtMjguNDEzMjIsMzguMjI4NzEgLTUuNDk0MzcsMTcuMTYxNjcgLTcuMDc5NjMsMzUuMzQ4NzkgLTYuNTQ4MjEsNTMuMjk0OTggMC40OTUxMywxMy45MDEzOSAyLjQ5NDU1LDI3Ljg4OTk0IDcuMzkyMDQsNDAuOTYyMjkgMi42Njc1Nyw2Ljc4NyA2LjU5MzIsMTMuMzM3MiAxMi40ODQxMiwxNy43OTUwNyAxLjY4NjI2LDEuMjM5NDUgMy41NDUzOCwyLjI0NzMgNS41MDk0MSwyLjk3MDU2IDIuMDczNTUsOS4yODk5NCA3LjUyNzYyLDE3LjU0NjA0IDE0LjM5Njg5LDI0LjAxNjM4IDQuODMzNDMsNC42ODI1NyAxMC4yMjE2NSw4Ljk1NzgyIDE2LjQzNzg3LDExLjY0MjM4IDUuOTA4NDgsMi4yNTk5NSAxMi44NzMzLDEuODgzNDcgMTguMzA5MTgsLTEuNDUzMDMgMy44NTM4NiwtMi4xMDkxOCA3LjA1ODQ3LC01LjE5NzQ4IDkuOTU3NjIsLTguNDU3NjggNi4wODExLDUuOTYyNTQgMTIuOTE2NjIsMTEuMzgwNDIgMjAuODQ3NTksMTQuNjQ4MzggMS41NDk1NSwwLjQ5ODM2IDMuMTc0OTYsMC43NjUyNCA0LjgwMjgsMC43Nzc0IC01Ljc0OTgxLDEwLjYxNjY4IC0xMC40NDQyNCwyMS44Mjk0NiAtMTcuNDc3OCwzMS43MDcwNSAtMi43MDY2NCwzLjU3OTIzIC02LjQyODgzLDYuMjQzOTYgLTEwLjM5MjM0LDguMjczMiAtMC40ODI5MywwLjEzMjc2IC0xLjE3MDI0LDEuMDYyIC0xLjQwMDcyLDAuMjEwOTkgLTMuNTI4NjIsLTUuNTIzNzcgLTguNDg0NjcsLTEwLjM0MTYgLTE0LjYwODQsLTEyLjg1Mzg5IC01Ljg2OTQ5LC0xLjk5MDk3IC0xMi41NjY2MiwtMC4zMDA1OSAtMTcuMjc4MDIsMy41ODE4MiAtNy42NjIzNSw1LjUzMjA5IC0xMi41Nzk4MSwxNC4zMDg3NyAtMTQuMzcwMzksMjMuNDk1MjYgLTAuOTIxOCw0LjE2OTkgLTEuMDg4ODUsOC40OTQ1NCAtMi4yNzEzNCwxMi42MDU0NSAtMS43MTE0NSwzLjIyNzY4IC00LjEwODI5LDYuMTYwNjkgLTUuMDYxMTIsOS43NzAwNSAtMy4xNzQ3LDkuMjMyNDggLTIuMjgyODMsMTkuNTIzMjggMS4zMjIyMywyOC40OTQ5OCA0LjMwOTYxLDEwLjg4NjkgMTIuMzc0NDMsMTkuOTc2IDIxLjg1OTk2LDI2LjY4OSAxMS42ODgxMiw4LjM2MDIgMjUuNDg2NzcsMTMuMjkwMSAzOS40OTcyNCwxNi4wNjY2IDE2Ljg1MTc4LDMuMzYyMSAzNC4xMDg1Miw0LjEwNTYgNTEuMjU0OTQsMy44MzkxIDMxLjE3NTQ3LC0wLjcyMTggNjIuMTA5OTUsLTYuMzAyNyA5Mi4wMDAxNywtMTUuMDE1NCAyNS4xODA0MywtNy4zNjkzIDQ5LjY0NzMzLC0xNy4wNzQ5IDczLjMwMTU5LC0yOC40MDcgMTkuNjg5ODUsLTkuMzQ2NCAzOC44Nzc2MiwtMTkuNzg0MyA1Ny4xODE3NywtMzEuNjI1NTcgMTcuNDgyMjcsLTExLjIyNTI0IDM0LjE2OTYzLC0yMy42MjE4OCA1MC41MjQ3MiwtMzYuNDIxMzMgOC4wMTI3MywtNi4yMjkzNiAxNi4wMTI0LC0xMi40NzcxOCAyMy45Nzg4NywtMTguNzY2NTEgMy4zNzg3NiwtMi44NTY5IDYuODA4MzcsLTUuOTgwNjUgOC41NzIyNiwtMTAuMTMzMiAxLjYxMDQ5LC00LjQyODU2IDAuNjA4NTYsLTkuNTcxNiAtMi4yMDE2OSwtMTMuMjk4MDggLTMuNDc2NzgsLTUuOTA2ODEgLTYuOTU0ODgsLTExLjkxNTAxIC04LjQ1MDM0LC0xOC42NzY5MSAtMi4wNzY5OSwtOC4zODMxNyAtMi4yNzE0MywtMTcuMTk1MzQgLTAuOTk0NDEsLTI1LjY1NjAxIDEuNzI2NDMsLTExLjMwMDE4IDUuNzQ2MywtMjIuMTkyMTcgMTEuMzEwOTUsLTMyLjE1MzY4IDIuMzE3MjcsLTMuOTI0ODcgNS4xODM1NCwtNy44ODExOSA1Ljc4NjIsLTEyLjU2NDc1IDAuNzQyNjcsLTQuODcyNDcgLTAuOTkzMzEsLTkuODg1NDUgLTQuMDg1OCwtMTMuNjQ3MzYgLTMuMDU5MTYsLTMuOTExODggLTYuOTE4MTYsLTcuMTQ5MDYgLTExLjA3Mjc1LC05LjgzOTk4IC01LjA4NzY0LC0zLjA2NTQyIC0xMS4wNTE2NSwtNC41NjE0NyAtMTYuOTc4MzEsLTQuNDYxNDYgLTguMjgxNTYsLTAuMjQyOTcgLTE2LjU2NTQ1LDAuMTQzOTkgLTI0Ljg0Nzg2LC0wLjAxMzEgLTAuNTM3MzQsLTIuNDE4NzYgLTEuMjc4ODksLTQuODAyMjMgLTEuOTY5NTYsLTcuMTg2NyAtMy45MjY4LC0xMi45NDg3NSAtOS40MDg5MywtMjUuMzkzNjggLTE1Ljg2ODMzLC0zNy4yNzAzMyAtOC4yMjc5MiwtMTQuNzAxNDkgLTE5LjA5NTM2LC0yOC4xNDI5OSAtMzIuNzk2ODksLTM4LjA3Mjc4IC0xMS45OTY1NSwtOC43MjE3OSAtMjYuMjk0MTksLTE0LjYwNjgyIC00MS4xNzUzNywtMTUuNTYxNDUgLTEuOTY4MDYsLTAuMTQzMjggLTMuOTQzNDMsLTAuMTcyNTkgLTUuOTE2NDEsLTAuMTUwOTMgeiIgc3R5bGU9ImRpc3BsYXk6bm9uZTtmaWxsOiNmZmZmZmY7ZmlsbC1vcGFjaXR5OjEiIGlkPSJwYXRoNSIvPiYjeGE7ICAgICAgPHBhdGggZD0ibSAxODUuOTA5MzgsLTg0LjI4MjMyIGMgLTExLjc3MDc5LDAuMzc2ODUgLTIzLjMzMzE0LDUuNjI4NSAtMzMuMzE3MzUsMTYuMDg1ODQgLTEwLjIwODE2LDEwLjY5MTk1IC0xNi41NjQ0MSwyNC43MzkgLTIwLjEyMjgsNDQuNDcxMTkgLTAuOTQ3OSw1LjI1NjM0IC0wLjQzNDEyLDUuMDE4OTkgLTguMzc0MTYsMy44NjQ4OCAtMTMuMzAxMDQsLTEuOTMzNDMgLTI1Ljc0MjAyLC00LjY3MzQ3IC01MC4zNjY0NCwtMTEuMDk0NDEgLTE3Ljk2MzM3LC00LjY4NDAxIC00MC45NzE4NywtOS45NDUzIC00NS45MDM2NiwtMTAuNDk2NTIgLTIuNjM2MTcsLTAuMjk0NjggLTIuODkyMzksLTAuMDUzOCAtMS44MzI5NiwyLjEzMjY4IDAuNjI1ODMsMS4yOTE2MSAxLjM5MDIsMy41NTU4MyAxLjY5OTEyLDkuNjU2NzggMC4xMzEwNywyLjU4ODU1IC0xLjgyMDg5LDAuMzYzMjIgLTMuMTQyOTYsLTMuODQ2NzkgLTAuNTc3MDIsLTEuODM3NDcgLTEuNjEyNDksLTUuMTMxNTcgLTIuMzAxMTUsLTcuMzE5OTcgLTguMTEzMDYsLTI1Ljc4MjI5IC0yMi45NzMzOSwtMzMuOTI0ODQgLTQwLjMxMDIsLTIyLjA4ODA2IC0zLjkyNTQ0LDIuNjgwMTIgLTMuNTA1OTUsMi43NTY5MSAtNy44OTQ2MSwtMS40NTIxMSAtNy43MzI1LC03LjQxNTk4IC0yMC45OTg0MiwtOS4wNTg3OCAtMzMuMDQyNDMsLTQuMDkyMjUgLTkuNjE1ODIsMy45NjUyNiAtMTUuODI3MjMsMTIuMTE0MzIgLTIxLjAxNzMyLDI3LjU3NDU0IC02LjYyMjQ4LDE5LjcyNzE2IC00LjIzMDAzLDY0LjMxMDU2IDQuMzUzNzQsODEuMTM2MTMgMC44NzAzNCwxLjcwNjAxIC0wLjE5NDQ3LDEuODM2MTEgOC42MDE1NCwtMS4wNDg1MSAwLjY0NjUsLTAuMjEyMDIgMS4xODg4OCwtMC4zMzY3MiAxLjgxMTc4LC0wLjUzMjI3IDIuMDk5MzksLTAuNjU5NTEgNC4xNjM3OCwtMS4zMDE2MSA2LjEwMDQsLTEuNzkyMTQgMC4wMjEyLC0wLjAwNSAwLjA0NTUsLTAuMDE0OCAwLjA2NjcsLTAuMDIwMiB2IDUuMmUtNCBjIC0wLjAyMTIsMC4wMDUgLTAuMDQ1LDAuMDEzNiAtMC4wNjY3LDAuMDE5NiA3LjUwNzU2LC0xLjg5MjEyIDE0LjQyMDQzLC0yLjU5NzA4IDI1LjQ5MDk1LC0yLjg2MTMyIDAuMTgzOTcsLTAuMDA0IDAuMzA5NzksLTAuMDE3MSAwLjQ5NjA5LC0wLjAyMTIgMy4xNTUxLC0wLjA2NiA2LjExNTIzLC0wLjA5OSA4LjkzNDM0LC0wLjA3NiAyLjU1MzMsMC4wMjA0IDQuOTY0OTIsMC4wOTY0IDcuMzI0MSwwLjIwNzc0IDAuMDYzNCwwLjAwMyAwLjEzMzU5LDAuMDAzIDAuMTk2ODksMC4wMDYgMTUuNzk1NTEsMC43NTc2NiAyOC4yMjYyOSwzLjY4MTY3IDQ5LjE2MTM0LDEwLjc3NDUzIDcwLjk2NTg5LDI0LjA0MzUxIDkzLjQ2MDY0LDI2LjA0NDM2IDEyNi43MTYzLDExLjI3MjE4IDEzLjU2NDI4LC02LjAyNTIxIDQwLjEwMTQ1LC0yNS4xNDc1MyA0My4xMjYwNSwtMzEuMDc2MTMgMy4xMTU3NCwtNi4xMDc2NCAxNi40NTUxLC0yLjE4MTM4IDI1Ljc4MDM0LDcuNTg4MTYgOS40NzQ2NCw5LjkyNjA4IDEzLjc0MzEzLDI2LjY4NDA5IDUuNzg1NjksMjIuNzEzODYgLTIwLjYyNjY4LC0xMC4yOTEyIC0zOS43MTQ0NiwxLjY4NTY3IC01Ny45MDY1NCwzNi4zMzM3IC0xNi40ODAxNCwzMS4zODc1NiAtMzEuOTcyMzgsNTIuMjMyMDkgLTUxLjI1MDYyLDY4Ljk1ODA3IC0xLjg0MzI2LDEuNTk5MTcgLTUuODExNjcsNS4xNzAwNCAtOC44MTkxLDcuOTM0OTEgLTI4Ljk2NzU1LDI2LjYzMTkzIC04Mi45MzA3NSw0MC4wMzI0MyAtMTM2LjM0ODc5LDMzLjg1OTQzIC02Ljk4NDkyLC0wLjgwNzIgLTE0Ljc1NzU4LC0yLjEyNCAtMTguNTIwODMsLTMuMTM3OCAtMS40NTUyLC0wLjM5MjEgLTUuMTg2MDEsLTEuMzY2MSAtOC4yOTA0NSwtMi4xNjQ3IC02LjQ2NDI0LC0xLjY2MjggLTEyLjY2OTQ3LC0zLjYzMzYgLTEzLjgyNDQ4LC00LjM5MDQgLTIuMjY3OTYsLTEuNDg2MTQgLTIuMzUwNzUsMC4xNzE0IC0wLjMwNzQ3LDYuMTYyNCA2LjY1OTU5LDE5LjUyNjggMjUuOTgzODQsMzAuNTgxNCA1OS44MTcwMiwzNC4yMTkxIDMuNTg5NDUsMC4zODU5IDcuMDgxNzIsMC43NjIxIDcuNzYwNzYsMC44MzUxIDUuNzE0NDQsMC42MTcxIDMyLjcyMjMyLDAuMTg4NyAzOS43Nzk0OSwtMC42MzEgNDcuNDk1MywtNS41MTY2IDg1LjA5ODE2LC0yMS44MTQ3IDE0Mi4wNDI0OSwtNjEuNTY1NzYgNy42MTI1NCwtNS4zMTM5OSA5Ljk2ODA5LC03LjA0Mzc2IDIwLjE0MzQ3LC0xNC43OTEzNCA1My4yNzEzLC00MC41NjA5MSA3MC4xODE2MSwtNzIuMzE2MzIgNTkuMDkwOTcsLTExMC45NjUzMiAtMi4xNzA4LC03LjU2NTA3IDMuMjI5NzEsLTAuNzU1NTMgNi4wMDk0NSw3LjU3NzMxIDYuMTg0NSwxOC41MzkwNCAxLjYxNDExLDQ0LjUzMjg1IC0xMS4wMDg2Myw2Mi42MTExNyAtOS43NDEyNCwxMy45NTE0MyAtMTQuODE0MzYsMTguNTkxNzQgLTI1LjU3ODgsMjcuNjgzNTggLTguMTk4OTQsNi45MjQ5MSAtOC4yODc3OCw3LjM5MDk4IC0xMi4yODUwMywxMC4zNTY5OSAtMS41MjY3NiwxLjEzMjg1IC0yLjU0NDA4LDEuODgwMjkgLTMuNzQ2MDMsMi43NzkxNiAtNy4wODA2OSw2LjEyMTc3IC0xMC4xMzc1OSw5LjAxNDg0IC0xMi44MDEyOSwxMi40NjY0MiAtMi40NjM2NiwzLjE5MjQ0IC0xNS41MTYyMywxNi4zODAwMiAtMTguMDEwMjcsMTguMjUyNjMgLTMuNzcwNDUsMi44MzA5OCAtNS44MjUzMiw0LjM2NzIyIC03LjIzNjc2LDUuMzc3OTYgMi42Mjc5NiwtMS4yOTgxMSA1LjIyNTY4LC0xLjc3MjY3IDE3LjIzNTEyLC04LjY3MjMzIDAuNjY2ODgsLTAuMzgzMTQgMi43Mzc2OCwtMS41MDE2OCA0LjU4NjI4LC0yLjUxNzY4IDUuMTU3MiwtMi44MzQyNiAxMC4yMzI3NSwtNC42NTMxNSAxNS4wMzM3MSwtNy42OTkyNyAwLjE5NCwtMC4xNTE5MyAyLjk3MjM0LC0xLjU4MzQ5IDYuMTczNzgsLTMuMTgxMiA1LjQ3MzMsLTIuNzMxNSAxMi44NDQxNywtNi43NjgxNCAxNC44MTY2NywtOC4xMTQyMyAwLjQ4NSwtMC4zMzEwMiAzLjE5NTUxLC0xLjg2OTc5IDYuMDIzNDEsLTMuNDE5NDMgMi44Mjc3NCwtMS41NDk2MyA3LjExNDEsLTQuMTYzNDQgOS41MjUsLTUuODA4OTUgMi40MTA3NCwtMS42NDU1MSA1Ljk3MDg0LC0zLjkxMTUgNy45MTExNCwtNS4wMzUzNSA2Ljk4OTY0LC00LjA0ODU5IDIyLjMyNDA5LC0xNC41NDAyNCAyOC40NTU2MywtMTkuNDY5MSAzLjQyNjYsLTIuNzU0NDIgOC4xNDkyNywtNi4zMjE2NiAxMC40OTQ5NywtNy45Mjc2OCA0LjMzMDE0LC0yLjk2NDc3IDUuMzMyNzUsLTQuMTQ2MzEgMy4xMTgxNSwtMy42NzM2OCAtMC42MzA2LDAuMTM0NTggLTYuMzA1NzksMC40MDIwOCAtMTIuNjExNjMsMC41OTQyOCAtNi4zMDU5LDAuMTkyMiAtMTMuMDk3ODQsMC40MzQ1NSAtMTUuMDkzMTQsMC41Mzg0NyAtMy43MDg1NCwwLjE5MzE1IC00LjY2MjI0LC0wLjA0NjQgLTQuNjYyMjQsLTEuMTcwOTkgMCwtMC43NTM0MSAyLjkwNDk2LC0zLjA0OTM0IDYuMTY2NTQsLTYuMzA4NjYgNC41NDU0NywtNC41NDIxNyAxMS40MDIyNCwtMTUuODU2NDEgMTQuMTI4MzQsLTI2LjI4NTIxIDQuNTMxMywtMTcuMzM1MTkgLTUuODYyODgsLTUyLjQwNTQ1IC0yMC41MjUzNiwtNjkuMjU0MTcgLTYuMDQ4NywtNi45NTA1NCAtNy43OTM1NSwtMTAuMDMzNjQgLTEwLjcyODU1LC0xOC45NTM4OCAtMi43OTMxNCwtOC40ODk3MSAtMy4yNzQ2MywtOC43MjYzIC0yLjkzNTIyLC0xLjQ0MjI5IDAuMjc1MSw1LjkwMzc3IC0wLjc1Mjc0LDEzLjAwNzA5IC0xLjI5MDM2LDE3LjE1ODY0IC0wLjk1OTkzLDcuNDEyNzcgLTEuMTk0MDcsNC45NzU4NiAtMi40ODU2MywyLjk3NjA0IC0yLjM1MzY3LC0zLjY0NDE0IC0yLjUzODcxLC00LjM3NzczIC0zLjMxNDAxLC0xNC4yNDg3NCAtMS45NDkzLC0yNC44MTg0MiAtNC40NTExOSwtMzQuNTQyODQgLTEyLjQzMTI5LC00OC4zMjA1NiAtMTQuNDM3MDcsLTI0LjkyNjIyIC0zNC42MzQ1MiwtMzcuODQwMjkgLTU0LjI1MjUsLTM3LjIxMjIgeiBtIC04Mi40ODc5OSw5LjM5NzM2IGMgLTEyLjUwMTc4LC0wLjU4NDgxIC0yMy40MzI4Niw4Ljg3NTc1IC0zMC4wMjgxNCwyNy41ODIzIC0xLjg4ODg0LDUuMzU3MzQgLTEuOTkyODQsNS4wMDgzNSAxLjc0NjY3LDUuODQ3NyAxLjU1MjE2LDAuMzQ4NDEgMy43NjIyMSwxLjAxMTUzIDQuOTExMzIsMS40NzMzIDIuNjc4MzMsMS4wNzYyNyA0LjIxNTIxLC0xLjAzMzM0IDUuNTI2MjgsLTEuOTQ1NjIgMy42NjU4MSwtMi41NTA3NiAxMC4wNzA3NCwtNi41MjM5OCAxNC45MDI5NywtNi41MTg5OCA2Ljc5NDc2LDAuMDA3IDkuODk2MjMsNS43MTI2NiAxMi44OTY4OCwxMC4zNDU2MiAxLjQ1MjI0LDIuMjQyMTkgMS42NzQzLDUuMDgwNTcgNi4wMzU4MSw1Ljk3NzQxIDIuODY1MjYsMC41ODkxNiAyLjk0NjI1LDAuNTMxNDkgMy40MzI4NywtMi40MzI5MyAwLjU0NDk1LC0zLjMxOTcyIDIuODIwNTcsLTEwLjgxODg5IDUuMDMwNywtMTYuNTgwMzggMC45MzAzOCwtMi40MjUzNCAxLjk3NDc5LC01LjIxNzkyIDIuMzIxMywtNi4yMDU4MiBsIDAuNjI5OTQsLTEuNzk2MjcgLTMuODAzOSwtMy42NzIxMyBjIC04LjAzNTA3LC03Ljc1NjIyIC0xNi4xMDE1NiwtMTEuNzIzMzEgLTIzLjYwMjcsLTEyLjA3NDIgeiBtIDg5LjgyMzk4LDE1LjE2MzQyIHYgNS4xZS00IGMgMTYuMzQ4MDQsLTAuNTI0OSAzMi4wMTE5NiwxMC4yMzIwNSAzOC44NjYzNiwzMS4yNzYxMyAzLjM3ODksMTAuMzczNjggNS4xMDQwNywyOC43NzIzMiAyLjkyNDM3LDMxLjE4NTE4IC0wLjkzMTYsMS4wMzExOCAtMC43OTA3MiwxLjMzNDA4IDEuNDExMjgsMy4wMzkwOSA3Ljc0Mjk0LDUuOTk1MzggMTkuMDE4ODcsMjEuNDUwMDIgMTkuMjQ2MzcsMjYuMzc4MjMgMC4wNzcsMS42NzQyNyAtMC4zODEyMywyLjAzNTE2IC0xLjQyMjEzLDEuMTE5ODMgLTAuMzkzNCwtMC4zNDU5MiAtMi4xOTgzMSwtMi4zNzQ5OCAtNC4wMTA2MSwtNC41MDkyOSAtMjAuMjEwNTgsLTIzLjgwMTYyIC01Mi4xMDEyNSwtMzcuMzU3MzYgLTc0LjU3OTQzLC0zMS43MDA5IC00LjA5MSwxLjAyOTQ5IC0xMC4zNDEwNiwzLjc3MjY0IC0xMS4xOTc3Niw0LjAyMTk3IC0wLjg5MDU4LDAuMjU5MTYgLTIuNTY1NTYsMC42ODExNyAtNC4wMDU5NiwxLjA5OTY4IC0zLjE5MzEsMC45Mjc4MSAtMy4zNTcxNywwLjc5Nzg4IC0yLjEzODM3LC0xLjY4NzI0IDAuNTM3OCwtMS4wOTY1NCAwLjcwMTcsLTEuNTc2NzMgMC43Mjc2LC0yLjI2MjM5IDAuMDIwMSwtMC41MzE1OCAwLjQxMTcsLTEuMDgyNjkgMC45Njg0MiwtMS42Mzc2MyAtMTBlLTQsMTBlLTQgLTAuMDAyLDEwZS00IC0wLjAwMywwLjAwMiBsIC01LjJlLTQsNS4yZS00IGMgLTAuNTU1NDUsLTAuMDY4MyAtMS4xMTk0LC0wLjEzOTk4IC0xLjgwMDkyLC0wLjIwODc4IC0yLjkyMjEzLC0wLjM5MTk1IC02LjAxMTAxLC0zLjk2NTQyIC02LjAxMTAxLC02Ljk1MzU4IDAsLTAuMjIxODggMC4wNDQzLC0wLjQ5NDA2IDAuMDgzMiwtMC43NDMxIDAuMDAxLC0xLjdlLTQgMC4wMDIsLThlLTQgMC4wMDIsLTEwZS00IDAuMDAxLC0xMGUtNCAwLjAwMiwtMC4wMDIgMC4wMDMsLTAuMDAyIC0wLjg1NDcyLDAuMzc2MTUgLTEuNzgwNzksMC4yMTc4MyAtMi44MzAzMiwtMC41MTcyOSAtMi43NzAxNSwtMS45NDAyNyAxLjczMTIyLC0xNi4wNjMxOCA4LjIwMjA5LC0yNS43MzI3OSA5LjcyMDQ5LC0xNC41MjU1NSAyMi44NTAwOSwtMjEuNzU4ODcgMzUuNTY1MjcsLTIyLjE2NzEyIHogbSAyLjU4MDIsOS4wMjM3MyAtNS4xZS00LDAuMDAyIGMgMC4wMjksMC4wMDEgMC4wNTc4LDAuMDA4IDAuMDg2OCwwLjAxMDMgLTAuMDI4OCwtMC4wMDIgLTAuMDU3NSwtMC4wMSAtMC4wODYzLC0wLjAxMTkgeiBtIC0yMDAuMTEyODUsMi40MzYwMyBjIDQuODk0MjEsMC40OTU5NyAxMC4xOTQyNyw2LjM0MTgxIDEyLjc1NDI2LDE1Ljg5NzIyIDIuMDk5MjMsNy44MzU1NSAwLjg5NDg3LDEwLjA0NjY3IC00Ljk0MTMsOS4wNzI4MyAtMC45MDM0NiwtMC4xNTA3NSAtMS40ODM1MiwtMC4zOTM1OSAtMS45NzcxNCwtMC44MTc1MiAtMC4yNzE1LDAuMDY2MyAtMC42ODk2OCwwLjEzMTg1IC0xLjQ5OTEzLDAuMzA1OTMgLTEuOTUxMjIsMC40MTk2MSAtOC42OTM0NywtMC4yNzMgLTkuNzU5NjEsLTAuODI5NDEgLTAuNjk5NjIsLTAuMzY1MTIgLTEuMzQzMzUsLTAuMzA3MjMgLTAuNjIzMjIsLTEuMDI3ODQgLTAuMjQxMjYsMC4zMjQ1OCAtMC40Nzk2OCwwLjYyOTQxIC0wLjY0NzUxLDAuNjI5NDEgLTUuMDEyODYsMCAtNS41MTMwNCwtOS4wMTE4NCAtMC45OTgzOSwtMTcuOTkxNjYgMS45NjQ5NSwtMy45MDgzMyA0Ljc1NTUxLC01LjUzNjU0IDcuNjkyMDQsLTUuMjM4OTYgeiBtIC01OS4zMjcxMywwLjI2MzAzIGMgMS42OTUxLDAuMDUyNCAzLjQzODE4LDAuNzcxMTYgNC44MTEwOCwyLjE0NDA2IDQuOTYwNTcsNC45NjA1NyA1Ljk2ODksMjAuMTE4MTUgMS4zMzg0MiwyMC4xMTgxNSAtMS4yNjIwNywwIC0xLjI1NzIyLDAuMTk0ODQgLTEuOTAwNjYsLTAuOTU5NjMgLTAuMzQzMDQsLTAuNjE1NDggLTAuNjU2NzIsLTEuMjQyODIgLTAuOTQ0MTMsLTEuOTE4MjMgLTAuNjgxNSwtMS42MDE1MyAtMS40ODYxMSwtMy44NDUxNCAtMS42OTQ0NywtNS4wMjcwOCAtMC4yNzQyMiwtMS41NTU1MyAtMC41NDk5MSwtMi40NDA2MyAtMC45MDAyLC0yLjU5NTE5IDAuMTQxOTQsMC4wNjI5IDAuMjY1MjgsMC4zMjc5OCAwLjM4NzU3LDAuNjI2ODMgMC4xNzg1NCwwLjQzNDE5IDAuMzQ1MzMsMS4wMzUzOCAwLjUwNzQ2LDEuOTUwNzkgMC4wMDEsMC4wMDggMC4wMDMsMC4wMSAwLjAwNCwwLjAxNzYgMC4xNTI1MywwLjg2NTA2IDAuNjQ2MzUsMi4yNDQ3OSAxLjE5Nzg2LDMuNTUyMjQgMC4yMDI5NywwLjUzNzM2IDAuMjk3MjEsMS4wMDQ5OCAwLjQ5NzEyLDEuNDc0ODQgMC4yODc0MSwwLjY3NTQxIDAuNjAxMDksMS4zMDI3NSAwLjk0NDEzLDEuOTE4MjMgMC4yNDg2MywwLjQ0NjEgMC4zODk1MiwwLjU3MzEzIDAuNTU1MDEsMC43MDUzOCBsIDAuMDA5LDAuMDE3NiAtMC40NjcxNSwwLjU4OTExIGMgLTAuMzkzNjEsMC40OTYxMiAtNi45NTAwMywwLjE4NTEyIC03LjQyMzMyLC0wLjA4NzkgLTAuMjkzLC0wLjE2ODkgLTAuNDU3NjUsLTAuMzUyNzMgLTAuNTc0NjQsLTAuNDg1MjQgbCAwLjA5ODIsLTAuMjc4MDIgYyAtMC4yODUyMiwwLjUxMTk3IC0wLjYyNDgsMC42MzE4NyAtMS43NTcsMC42MDMwNyAtMS42MTYxOCwtMC4wNDExIC0xLjc2MTg5LC0wLjE1NDQ2IC0yLjYzNDk4LC0xLjI5OTE1IC0yLjI3ODg0LC0yLjk4NzY1IC0wLjA2OTYsLTE1LjM4MjggMy40MjQwOCwtMTkuMjExNzQgMS4xODA2OSwtMS4yOTM5OSAyLjgyNzY4LC0xLjkwODExIDQuNTIyNzIsLTEuODU1NzEgeiBtIDI3NC40NDAxLDIuNzQ0NTQgYyAwLjE2MTE2LDAuMTA1OSAwLjMyNTkzLDAuMTg4NDggMC40ODU3NiwwLjMwMjgyIGggNS4xZS00IGMgMC4wMDcsMC4wMDUgMC4wMTMyLDAuMDExIDAuMDIwMiwwLjAxNiAtMC4wMDcsLTAuMDA1IC0wLjAxMzIsLTAuMDEyNiAtMC4wMjAyLC0wLjAxNzYgLTAuMTU5OTEsLTAuMTE0NDEgLTAuMzI1NzQsLTAuMTkwNTIgLTAuNDg2MjcsLTAuMzAxMjcgeiBtIC0yMTYuMzE5NjEsNy43OTc5NyBjIC0wLjEwODM2LDAuMDE4OSAtMC4yMDQ3OCwwLjE5ODk0IC0wLjMwNDM4LDAuMzIyNDYgMC4xMDAyOSwtMC4xMzY0IDAuMTk5NjQsLTAuMjkxOTcgMC4zMDkwMywtMC4zMTk4NyAtMC4wMDIsMCAtMC4wMDQsLTAuMDAyIC0wLjAwNSwtMC4wMDMgeiBtIC0wLjUwNjQzLDAuNTM1MzcgYyAtMC4xNjgxLDAuMzM0MDggLTAuMzM2MDcsMC44MjA2NSAtMC41MjI0NSwxLjQ4MzExIC0wLjgxNjY0LDIuOTAyNzQgLTEuNzEwMjcsNS40ODIzNCAtMi41MDg4OSw3LjM1MjAxIDAuNzk5MTEsLTEuODY5NDYgMS42OTMzOSwtNC40NTE0NyAyLjUwOTQxLC03LjM1MjAxIDAuMTgyNjksLTAuNjQ5MjIgMC4zNTExMywtMS4xNDIxMiAwLjUyMTkzLC0xLjQ4MzExIHogbSAxMTMuNTIwMiwwLjkxNzc3IGMgMC4yMTEwNiwwLjQ1MjMzIDAuNDA5OTcsMC45MDQxNCAwLjY0NTk2LDEuMzQyMDQgMC4xMDc4OSwwLjIwMDE3IDAuMTc3MDYsMC4zNzUyNCAwLjI3NzUsMC41NzQ2NCAtMC4yMDMwNSwtMC40NDk3NSAtMC4yMjYyMywtMC42ODkwNiAtMC40NDM5LC0xLjA5Mjk1IC0wLjEwNDQ1LC0wLjE5MzggLTAuMzM2MzUsLTAuNTY5NCAtMC40Nzk1NiwtMC44MjM3MyB6IG0gNTguNjM4MjgsMTQuMTQ3OTggYyAtMC4wMzA0LDAuMDQ0MiAtMC4wNzIyLDAuMDc5IC0wLjEwMjMyLDAuMTIzNTEgLTAuNTM2MzMsMC43OTM4NCAtMC45Nzk5MSwxLjY0OTkzIC0xLjM3NDA3LDIuNTMzNjkgMC40MTU3OCwtMC45MzIxMSAwLjkwOTA0LC0xLjgyMjA4IDEuNDc2MzksLTIuNjU3MiB6IG0gLTIuNjI1NjgsNi4zNjE4OCBjIC0wLjE4MjA1LDAuOTgzNjIgLTAuMzA1OTIsMS45ODY3OCAtMC4zMDU5MiwzLjAyMzA4IDAsMS45MzM1MSAwLjMzMTU5LDMuNzg5MyAwLjk0MDUxLDUuNTE0MzkgMC4wODM2LDAuMjM2NzEgMC4xNzIyMywwLjQ3MTE2IDAuMjY2MTMsMC43MDI4IDAuMDE0LDAuMDM0NSAwLjAxODgsMC4wODU2IDAuMDI1OCwwLjEzMzMyIDAuMDAxLC0yLjdlLTQgMC4wMDEsLTcuM2UtNCAwLjAwMiwtMC4wMDEgLTAuMDA3LC0wLjA0NzcgLTAuMDExOCwtMC4wOTg4IC0wLjAyNTgsLTAuMTMzMzMgLTAuMDkzOSwtMC4yMzE2NCAtMC4xODI1MywtMC40NjYwOSAtMC4yNjYxMywtMC43MDI4IC0wLjYwODkyLC0xLjcyNTA3IC0wLjk0MDUxLC0zLjU4MDg1IC0wLjk0MDUxLC01LjUxNDM5IDAsLTEuMDM1MTcgMC4xMjI2OCwtMi4wMzk0NSAwLjMwNDM3LC0zLjAyMjA0IHogbSAxMjQuNTgzMSwzMC42MDc5NSBjIC0wLjAwOCwwLjAwMiAtMC4wMDIsMC4wMTA5IC0wLjAxLDAuMDEyOSAwLjAxODEsLTAuMDA1IDAuMDQ5NSwtMC4wMDUgMC4wNjk4LC0wLjAwOSAtMC4wMSwwLjAwMiAtMC4wNTA5LC0wLjAwNiAtMC4wNTk5LC0wLjAwNCB6IG0gLTMwNC44MjQyOSwyNy40MjQxNyAtNS4yZS00LDEwZS00IGMgMi4zMzkxNiwtMC4wNzIyIDcuMjYzNDksMC40MzEzMyAxMy4xMzcxOCwwLjkxMTU4IDcuNjMxMTksMC42MjM5NSAxMi40MjkyNSwxLjA4MTEgMTMuMTk0MDMsMS44NDU4OCAwLjEyNDA1LDAuMTI0MDQgMC4yMDkzOCwwLjMzNDYzIDAuMjU4MzgsMC42MjE2NyAtMC4wNDksLTAuMjg3NDYgLTAuMTMzNywtMC40OTg1NiAtMC4yNTc4NiwtMC42MjI3IC0wLjc2NDc4LC0wLjc2NDc4IC01LjU2Mjg2LC0xLjIyMTk0IC0xMy4xOTQwMywtMS44NDU4OSAtNS44NzM3LC0wLjQ4MDI1IC0xMC43OTgwMiwtMC45ODM3NyAtMTMuMTM3MTgsLTAuOTExNTcgeiBtIDk3LjQ0Njc2LDI1Ljc0Nzc4IGMgMC4wOTEzLDAuMjM3OTcgMC4wMDgsMC43NjQ3MSAtMC4yMTU0OSwxLjUxMjA2IDAuMjI0MDEsLTAuNzQ3NTYgMC4zMDczMSwtMS4yNzQwNCAwLjIxNjAxLC0xLjUxMjA2IHogbSAtMjEuNDQ4MywxMC4wMTggYyAwLjk4MzgyLDQuOTg3ODEgMi4zMjI5OCwxMC4wNDM0MiAzLjc0Mzk2LDEzLjc4MDU1IDAuNDg5MjMsMS4yODY2NyAwLjg1MTQxLDIuMjQ4MjcgMS4xNTQ0NSwyLjkyOTAyIC0wLjMwMjk5LC0wLjY4MDgxIC0wLjY2NDc2LC0xLjY0MjU3IC0xLjE1Mzk0LC0yLjkyOTAyIC0xLjQyMDg3LC0zLjczNzE0IC0yLjc2MDUxLC04Ljc5Mjc5IC0zLjc0NDQ3LC0xMy43ODA1NSB6IG0gMzAuNjM5NDcsNjcuMzcyMTEgYyAtMC40MDUwMywwLjAyMzEgLTAuODA4ODMsMC4wODI5IC0xLjIxMTgxLDAuMTc5ODQgMC44MDU5NSwtMC4xOTM4MSAxLjYxNjM4LC0wLjI0MDA0IDIuNDI5ODMsLTAuMTM5MDEgLTAuNDA2NzMsLTAuMDUwOCAtMC44MTI5OSwtMC4wNjM5IC0xLjIxODAyLC0wLjA0MDggeiBtIDEuMDc1OTEsNi41MDM0OCBjIC0wLjAwMywtMi43ZS00IC0wLjAwNSw3LjllLTQgLTAuMDA4LDUuMmUtNCBsIDUuMWUtNCwwLjAwMiBjIDAuMDAxLDdlLTUgNy45ZS00LC02ZS01IDAuMDAyLDAgbCAtNS4xZS00LDUuMmUtNCBjIDAuMDAyLDEuOGUtNCAwLjAwNCwtMS43ZS00IDAuMDA2LDAgMS4wMTgsMC4wODU0IDEuODE3NzUsMC40MDE1IDIuNTk1NywxLjEzMTcxIDAuMzE5NzQsMC4zMDAxNCAwLjY0MDA2LDAuNzIxNzUgMC45NjU4NCwxLjE3NDYxIDAuMDcwMywwLjA5NzggMC4xMzc0NywwLjE0Nzc0IDAuMjA4NzcsMC4yNTMyMSB2IDUuMmUtNCBsIDUuMmUtNCw1LjJlLTQgYyAwLjQwMjA0LDAuNTk1MSAwLjgyMzA2LDEuMzE2NTYgMS4yODcyNiwyLjE4NzQ2IHYgNS4yZS00IGwgNS4xZS00LDUuMWUtNCBjIDAuNTk2NTEsMS4xMTkwNCAxLjgzNDE1LDMuMTQwMzEgMi43NTEyNiw0LjQ5MjI0IHYgNS4xZS00IGwgNS4xZS00LDUuMmUtNCBjIDAuMDY3MSwwLjA5ODkgMC4wODc0LDAuMTMwNjggMC4xNTI5NiwwLjIyNzM4IC0wLjA3MDksLTAuMTA0NTIgLTAuMDgwOSwtMC4xMjI5MSAtMC4xNTM0NywtMC4yMjk5NiAtMC45MTczMSwtMS4zNTIyMiAtMi4xNTU0MSwtMy4zNzQzOCAtMi43NTE3NywtNC40OTMyNyAtMS44NTc2MSwtMy40ODUyMSAtMy4wMjIxNiwtNC41NzgzOSAtNS4wNTgwOSwtNC43NDkwNiB6IG0gLTQ4LjM3NTM1LDUuNjI0NDYgYyAtMC4yODkxNCwwLjAwMyAtMC41Nzg0MywwLjAyMjQgLTAuODY3NjQsMC4wNTg5IDAuNTc4NDMsLTAuMDczIDEuMTU3MTQsLTAuMDc4NyAxLjczNDc4LC0wLjAxNjUgLTAuMjg4ODIsLTAuMDMxMSAtMC41Nzc5OSwtMC4wNDU0IC0wLjg2NzE0LC0wLjA0MjQgeiBtIC05My4yMTEzNiwwLjE4NSBjIC0wLjI0MjgxLC0wLjA4NTkgLTAuNDczMjUsLTAuMDc3MSAtMC42ODc4MSwwLjAzNzcgLTAuMDA0LDAuMDAyIC0wLjAwOSwwLjAwOSAtMC4wMTI5LDAuMDEwOSAwLjAwNCwtMC4wMDIgMC4wMDgsLTAuMDA4IDAuMDEzNCwtMC4wMTAzIDAuMjE0NSwtMC4xMTUgMC40NDUwMiwtMC4xMjM3MyAwLjY4NzgyLC0wLjAzNzcgdiAtNS4yZS00IHogbSAxMzYuMjU4MzUsNC45MDY2OCBjIC0wLjI2OTkyLDMuMjgxNTkgLTAuNTY3NzgsNi4zMDU4MSAtMC42NzMzNCw2LjQ3NjYxIC0yLjNlLTQsMCAyLjJlLTQsMC4wMDUgMCwwLjAwNSAyLjNlLTQsLTAuMDAyIDIuN2UtNCwtMC4wMDUgNS4xZS00LC0wLjAwNSAwLjEwNTUzLC0wLjE3MDc1IDAuNDAzLC0zLjE5NTExIDAuNjcyODMsLTYuNDc2NjEgeiBtIC03OC41MDIxOSwxLjk5MjY1IGMgLTAuMjA4MzIsLTAuMDAyIC0wLjQxODQ3LDAuMDEyNiAtMC42MzE0OCwwLjA0MzQgMC40MjYwMywtMC4wNjE1IDAuODM5NTMsLTAuMDU5OCAxLjI1MzY3LDAuMDE3NiAtMC4yMDcwNywtMC4wMzg3IC0wLjQxMzg2LC0wLjA1OSAtMC42MjIxOSwtMC4wNjEgeiBtIC0yNS4yMDU2OSwwLjM4NjAyIHYgNS4xZS00IGMgMC40OTcyOCwwLjA3NTEgMC45NjMyNywwLjI2MjUxIDEuNDA4NywwLjU2NDMxIGggNS4xZS00IGMgMC40NDUzMywwLjMwMTc5IDAuODcwMDQsMC43MTc5MiAxLjI4NDY4LDEuMjQ5NTQgMC4yNjExNCwwLjMzNDgyIDAuNTE1MjEsMC43OTcxOSAwLjc3MTAxLDEuMjI0MjEgMC4xNTAyNywwLjI1MDg1IDAuMzAzMzgsMC40MzYwNiAwLjQ1MzIsMC43MTg4MiAtMS4yMTUzNSwtMi4yOTQyMiAtMi40MjYwNCwtMy41MzE5NCAtMy45MTc1OSwtMy43NTczOSB6IG0gMjQuNjkxNTEsNS4xMzMwMiB2IDUuMWUtNCBjIC0wLjE5NDI4LDAgLTAuNDA4OSwwLjA5NjggLTAuNjQwMjcsMC4yNzgwMiAwLjIzMTMsLTAuMTgxMDEgMC40NDYxLC0wLjI3NzUgMC42NDAyNywtMC4yNzc1IHYgMC4wMDggYyAwLjIwOTE4LDAgMC41MDEzMSwwLjE2OTQgMC44NTgzNSwwLjQ4NTc2IDAuMzU3LDAuMzE2MzcgMC43NzkyNCwwLjc3OTI3IDEuMjQ4NSwxLjM2NzM2IDAuMDAyLDAuMDAyIDAuMDA0LDAuMDA1IDAuMDA1LDAuMDA3IDAuMDA4LDAuMDEgMC4wMTczLDAuMDI0NiAwLjAyNTMsMC4wMzQ2IDAuOTI0NjgsMS4xNjM1NyAyLjAyODY0LDIuODA1MiAzLjE4MDY5LDQuNzU4ODggMC4wMTA1LDAuMDE3OCAwLjAyLDAuMDMwOCAwLjAzMDUsMC4wNDg2IGwgNS4yZS00LDUuMWUtNCBjIDEuMzEyNzYsMi4yMzEyOSAzLjE4MTc0LDUuNDA2MzEgNC4xNTMyNCw3LjA1NTM5IGwgNS4xZS00LDUuMWUtNCBjIDAuOTcxNjQsMS42NDkyOSAyLjc2NjQyLDQuMzk1NTIgMy45ODg5MSw2LjEwMjk5IGwgNS4xZS00LDUuMmUtNCBjIDAuNTYyMTgsMC43ODUyNCAwLjg5OTE3LDEuMzczODUgMS4yNzk1MSwyLjAwMDM5IC0wLjM3OTg5LC0wLjYyODk5IC0wLjcxMzMxLC0xLjIxNzQxIC0xLjI4MDU0LC0yLjAwOTcgLTEuMjIyNjEsLTEuNzA3NjEgLTMuMDE3ODQsLTQuNDU0MjYgLTMuOTg5NDIsLTYuMTAzNSAtMC45NzE1OCwtMS42NDkyMyAtMi44NDA5OCwtNC44MjQ1OCAtNC4xNTM3NSwtNy4wNTU5IC0yLjM0OTUsLTMuOTkzMzkgLTQuNTExMjUsLTYuNzAyNDMgLTUuMzQ4LC02LjcwMjQzIHogbSAtNjUuMTAzNTIsMy4xMDgzNCBjIC0wLjQ0MzM1LDIuMzcyIC0wLjcxMjE5LDQuNzkyNTUgLTAuNzU4MDksNy4xMTI3NCAwLjA0NTgsLTIuMzE4NDMgMC4zMTc2OCwtNC43NDM0OCAwLjc1ODA5LC03LjExMjc0IHogbSAyNC45MTU4LDQuNjkyNzMgYyAtMC4zNTUzOSwwLjcyODczIC0wLjY1OTU5LDEuNDkxMDIgLTAuOTIzNDYsMi4zMDczNiAwLjI2Mzg0LC0wLjgxNTg0IDAuNTY4MTQsLTEuNTc3NjcgMC45MjM0NiwtMi4zMDYzMiA2ZS01LC05ZS01IC03ZS01LC05ZS00IDAsLTAuMDAxIHogbSAtOC41NTcxLDEwLjg4OTc4IGMgLTIuM2UtNCwwLjAwMiAtNi41ZS00LDAuMDA1IC0wLjAwMSwwLjAwNyBsIDUuMmUtNCwtNS4xZS00IGMgMy43ZS00LC0wLjAwMSAxLjVlLTQsLTAuMDA0IDUuMmUtNCwtMC4wMDYgeiBtIDEzLjE0MTgzLDUuMDE5MzEgYyAyLjkyMDIsMC40MDU3IDYuNzk5NDYsMC44ODEzIDEyLjU5MjUxLDEuNTkyMiAxLjMxNTE3LDAuMTYxMyAzLjEyNDk3LDAuMjY4MiA0LjY1NzYsMC4yODQyIC0xLjUzMjExLC0wLjAxNiAtMy4zNDMxMiwtMC4xMjM2IC00LjY1NzYsLTAuMjg0NyAtNS45MDAzNCwtMC43MjQxIC05LjY3Mjc0LC0xLjE4MDIgLTEyLjU5MjUxLC0xLjU5MTcgeiIgc3R5bGU9ImRpc3BsYXk6aW5saW5lO2ZpbGw6IzFiYmU0NztmaWxsLW9wYWNpdHk6MTtzdHJva2U6bm9uZTtzdHJva2Utd2lkdGg6MC4yO3N0cm9rZS1saW5lY2FwOnJvdW5kO3N0cm9rZS1saW5lam9pbjpiZXZlbDtzdHJva2Utb3BhY2l0eToxIiBpZD0icGF0aDM2Ii8+JiN4YTsgICAgICA8cGF0aCBkPSJtIDI4OC40ODgxMywxNS4wNzkwNiBjIC0wLjc2MTg1LDAuMDA0IC0wLjgxNDcxLDAuMjY2MzIgLTAuMTgxOSwxLjA3MDIyIDQuMDE3OSw1LjEwMzg4IDcuODU3NTIsMTEuNzc5OTcgMTAuMzI3MDIsMTcuNTY0ODIgNS4xNDcyOSwxMi4wNTc2NSA1LjY1NjYzLDEyLjc3OTgyIDYuMTU2NzMsOC43MjgxNSAwLjM3MTgsLTMuMDEyMDUgMy4wODUxNSwtMTEuNDcyMjEgNS43OTk2NSwtMTguMDg0MTcgMy41NDM4OSwtOC42MzIyOSAzLjM2MjY0LC04LjA5NjU3IDIuODk1OTQsLTguNTYzMyAtMC4yOTkxLC0wLjI5OTA5IC0zLjQ0MTM5LC0wLjM5NjIgLTExLjYwNjUyLC0wLjMwMTc5IC04LjMxMTAxLDAuMDk2MSAtOS41NzE0MywwLjAwNiAtMTEuMjQ4OTMsLTAuMjA0NjQgLTAuOTcyNTEsLTAuMTIxOTUgLTEuNjg0ODgsLTAuMjExODYgLTIuMTQxOTksLTAuMjA5MjkgeiBtIDEwLjYwNTU2LDc0LjM2MzkzIGMgLTAuMzAzMzUsMC4wNTYxIC0wLjcwOTMyLDEuMjM0NzUgLTEuMzMzNzcsMy41NTY4OSAtMS42NDIsNi4xMDYwNyAtMy45MzM3NywxMC40Mzg2MSAtOC4xMDI4NywxNS4zMTg5NiAtMi41MTk4OSwyLjk0OTg0IC0yLjUxNDc1LDMuMjEwNzMgMC4wNiwyLjk5MjA3IDEuMTE1NywtMC4wOTQ3IDUuNDA2LC0wLjIyODkxIDkuNTM0MywtMC4yOTgxNyA4LjE2OTE5LC0wLjEzNzA0IDguMjcyMzgsLTAuMTU5MTEgNy4zNzI2OCwtMS41NjE2NiAtMi44NzMyLC00LjQ3OTIgLTYuNDcwOTEsLTEzLjM2NzIzIC02LjgxMjUxLC0xNi44MzA1IC0wLjIxMzc1LC0yLjE2NzE0IC0wLjQxNDQzLC0zLjIzMzY4IC0wLjcxNzc4LC0zLjE3NzU5IHoiIHN0eWxlPSJkaXNwbGF5OmlubGluZTtmaWxsOiM1NWFkZGU7ZmlsbC1vcGFjaXR5OjEiIGlkPSJwYXRoMS0zLTMtOSIvPiYjeGE7ICAgICAgPHBhdGggZD0ibSA0OS4wNzAxOSw5My42OTU0NSBjIC0yLjAwMzEzLDEuNjkwNzMgLTMuNjQ3MjQsMy4yODY1IC01LjEwNDYsNC42OTI3MyAtMS4yNTYxNiwxLjIxMjEzIC03LjE1NTc0LDguMDAzODggLTE0LjczNjA1LDE3LjkwMjc5IC0xLjU2NzQ0LDIuMDQ2ODcgLTkuNDI1MzQsMTMuNzkwNzUgLTEzLjE4MDA4LDE5LjY5ODAyIC0xMC40NDU1MSwxNi40MzM4NyAtMTcuODEyNDIsMjUuOTU2MTggLTIyLjcxOTU0LDI5LjM2NjY4IGwgLTEuMDIzNzEsMC43MTE1OSAwLjU2NTg2LDIuMjU4MjYgYyAwLjMxMTMsMS4yNDIwOCAwLjY1MzkyLDMuMjg2MDUgMC43NjE3MSw0LjU0MTg0IDAuMzUxMDMsNC4wODk1NiAxLjQ5NzM3LDQuMTk1MjYgMy40NDU3OCwwLjMxNzgxIDIuMTY1MDcsLTQuMzA4NTUgNC40MTA3NSwtNi40ODc3NyA4LjEzMzM2LC03Ljg5MDk5IDMuNzIzNjYsLTEuNDAzNjMgNS43NDUwOSwwLjQzNTkzIDEzLjExMzQxLDExLjkzNTE5IDUuNjMyODQsOC43OTA4MSA2LjIwNjI4LDguMzgwMjggNy4yMjY0Myw0LjE0MDgzIDAuOTQ4OTcsLTMuOTQzNjMgMS43MjQ2MywtNi41MDk3MyAyLjg1MzU3LC04Ljk5MjIyIDguMjEzNzcsLTE4LjA2MTc1IDE4LjQ4NTM4LC0xOS41OTY1NyAyNi43NDgyNCwtMy4xMzg4MiAyLjExNTE0LDQuMjEyODMgNS4wMTU1LDEwLjg4NjE3IDYuNTUzNjEsMTQuOTY2NTMgMS44OTMzNCw1LjAyMjc4IDMuMTczNzgsMy4xODgwMyA3LjU2Mjg0LDEuNTE1MTUgMTAuMDgxNSwtMy44NDI1MiA5LjIwODM3LC0xLjUxNDY0IDkuMzkzNzQsLTEwLjU1MzM2IDAuMzI3NiwtMTUuOTc0MTMgMS42OTE5NywtMjIuNzk5OTEgNS4yNzE1MiwtMjYuMzczNTkgOWUtNSwtOWUtNSAtOWUtNSwtNC4yZS00IDAsLTUuMWUtNCAwLjAwMiwtMC4wMDIgMC4wMDMsLTAuMDAyIDAuMDA1LC0wLjAwNCAwLjc4NTIxLC0wLjc4MzIgMS41NzYwNiwtMS40MTk1OSAyLjM3MTQ0LC0xLjkwNzg5IDAuNzk3MTEsLTAuNDg5MzcgMS41OTg1NCwtMC44MzA5IDIuNDA0NSwtMS4wMjQ3NCAwLjgwNTk2LC0wLjE5Mzg1IDEuNjE2MzcsLTAuMjQwMDQgMi40Mjk4MywtMC4xMzkwMSAwLjgxMzMsMC4xMDEgMS42MzAwMywwLjM0OTU0IDIuNDQ5NDYsMC43NDQ2NSAxLjVlLTQsOGUtNSAzLjdlLTQsLTdlLTUgNS4yZS00LDAgMC44MTk1OCwwLjM5NTI0IDEuNjQxNjQsMC45Mzc0NiAyLjQ2NiwxLjYyNjI2IDAuODI0MzUsMC42ODg4IDEuNjUwNjMsMS41MjQwOSAyLjQ3ODQsMi41MDU3OSAwLjgyNzc2LDAuOTgxNyAxLjY1Njg1LDIuMTA5ODIgMi40ODY2NywzLjM4Mzc3IDAuODI5OCwxLjI3Mzk1IDEuNjYwMywyLjY5MzY0IDIuNDkwOCw0LjI1OTE3IDAuNzE3NDksMS4zNTI1MiAxLjI3NywyLjM4MTcyIDEuNzUyODcsMy4xNDU1NSAwLjQ3MzI1LDAuNzU5NDUgMC44NjQ0MSwxLjI1NzYxIDEuMjQ1NCwxLjU0NTY0IDEuNmUtNCwxLjNlLTQgMy41ZS00LDMuOWUtNCA1LjFlLTQsNS4yZS00IDAuMTkwODUsMC4xNDQxNyAwLjM3OTM5LDAuMjM1OTUgMC41NzQ2NSwwLjI4MjY3IDAuNTg2NDEsMC4xNDAzMSAxLjIzNDQzLC0wLjEyNzMgMi4xOTI2MywtMC42MTQ5NSA5LjE5Njg5LC00LjY4MDU0IDI4LjIzNTUyLC0yMy4xOTAwOSAzNi45MjQ4OCwtMzYuMjY2IDQuOTgzNDUsLTcuNDk5MyAxNS43NzY2MywtMjQuNTM3NzUgMTcuNTM3NDMsLTI4LjgyNzcgMC4xMjQ4MywtMC4zMDQxMiAwLjk1ODMzLC0yLjIxNTE2IDEuMzEwNTEsLTMuMDI1NjYgLTUuMjQ3OTQsNS4xNTk0IC0xNC4zNDc5MiwxMS42NzY2OCAtMjcuNzM0NzQsMTIuOTI5NDUgLTUuMDI0NjYsMC40NzAyMSAtMjIuODMwNSwxLjM1MjM1IC0yNy41MjA4LC0yLjc3MDM4IC04LjU2NTU3LC03LjUyODk4IC04LjA3MjU3LDMuMjY3NzMgLTM0LjY1MzE4LDIuMDIwNTUgLTE2LjAwNTIyLC0wLjc1MDk3IC0yMS45ODUzNCwtNC4yMzI0IC0yNi4wNzkwMywtMTIuOTYxNDggeiIgc3R5bGU9ImRpc3BsYXk6aW5saW5lO2ZpbGw6I2I1MTYyZSIgaWQ9InBhdGgzMyIvPiYjeGE7ICAgICAgPHBhdGggZD0ibSAxOTUuODI1NTcsLTUwLjY5NzgxIGMgLTEuMTQ0MjUsLTAuMDcwNCAtMi4yODg1MiwtMC4wMzUxIC0zLjQzMTMxLDAuMDM4OCAtMC4yMjY4MiwwLjAxNDcgLTAuNDUzOTYsMC4wMTA3IC0wLjY4MDU4LDAuMDMxIC0xLjE2ODA5LDAuMTA0NDggLTIuMzMyNzksMC4yODk4MSAtMy40OTIzLDAuNTQxNTcgLTEuNmUtNCwzZS01IC0zLjRlLTQsLTRlLTUgLTUuMWUtNCwwIC0wLjI5MjQxLDAuMDYzNSAtMC41ODI3MiwwLjE0OTc4IC0wLjg3NDM3LDAuMjIyNzIgLTAuMDAyLDMuOWUtNCAtMC4wMDMsNi41ZS00IC0wLjAwNSwxMGUtNCAtMC45MDMxNywwLjIyNTQ0IC0xLjgwMjIsMC40OTQwOCAtMi42OTU5NiwwLjgwNzE4IC0wLjMzMDQzLDAuMTE1NzcgLTAuNjYxMjQsMC4yMjg5NiAtMC45OTAxMiwwLjM1NjU3IC0xLjEyNDY3LDAuNDM2MzkgLTIuMjQyNzQsMC45MTk5OCAtMy4zNDU1MywxLjQ5MjkzIC0wLjAyMTUsMC4wMTEyIC0wLjA0MzYsMC4wMTkyIC0wLjA2NTEsMC4wMzA1IC0xLjEyMjc5LDAuNTg2MjggLTIuMjI3ODEsMS4yNjU4MiAtMy4zMjE3NiwxLjk5MDU4IC0wLjMxMzQsMC4yMDc2NCAtMC42MjMwOSwwLjQzMDIyIC0wLjkzMzgsMC42NDkwNSAtMC44MzQ2NSwwLjU4Nzg2IC0xLjY1ODg0LDEuMjE2NSAtMi40NzIyLDEuODg0MTIgLTAuMDAyLDEwZS00IC0wLjAwMywwLjAwMiAtMC4wMDUsMC4wMDQgLTAuMjc1NjEsMC4yMjYxMiAtMC41NTM5MiwwLjQ0MTYzIC0wLjgyNjgyLDAuNjc2OTYgLTEuMDM4NjUsMC44OTU2MyAtMi4wNjAyNywxLjg0Nzk0IC0zLjA1NjY2LDIuODcyNyAtMC4xODEyMywwLjE4NjM4IC0wLjM1NTI5LDAuMzkyNDIgLTAuNTM0ODUsMC41ODM0MiAtMC4wMDIsMC4wMDIgLTAuMDA0LDAuMDA1IC0wLjAwNiwwLjAwNyAtMC44MjQzOCwwLjg3NDYzIC0xLjYzMTY4LDEuNzk0NzcgLTIuNDIyMDgsMi43NTY5NCAtMC4yODM2NywwLjM0NTM0IC0wLjU2NDg4LDAuNjk2NyAtMC44NDM4NywxLjA1MzE2IC04LjRlLTQsMTBlLTQgLTAuMDAyLDAuMDAyIC0wLjAwMywwLjAwMyAtMC43NjkxMiwwLjk4Mjc2IC0xLjUxOTc1LDIuMDA3NiAtMi4yNTEwMiwzLjA3MzcxIC0wLjAwMSwwLjAwMiAtMC4wMDMsMC4wMDQgLTAuMDA0LDAuMDA2IC0wLjE3MDkzLDAuMjQ4ODIgLTAuMzQ4NiwwLjQ4MjkyIC0wLjUxNzI4LDAuNzM2MzkgLTQuOGUtNCw3LjNlLTQgLTAuMDAxLDEwZS00IC0wLjAwMiwwLjAwMiAtMC44NzM5MSwxLjMxNDIxIC0xLjcxNDA4LDIuNjk1NTQgLTIuNTI1OTQsNC4xMjg0MyAtMC4yMDk5NywwLjM3MDU5IC0wLjQwOTM5LDAuNzU5NTIgLTAuNjE0OTUsMS4xMzc5MiAtMC42MTg5OCwxLjEzOTM0IC0xLjIxNzUxLDIuMzEzNTggLTEuNzk0NzMsMy41MjI3OCAtMC4yMTQ3OSwwLjQ0OTk4IC0wLjQzMSwwLjg5NzUzIC0wLjYzOTc1LDEuMzU3MDIgLTIuNmUtNCw1LjdlLTQgLTcuOGUtNCw5LjllLTQgLTAuMDAxLDAuMDAyIC0wLjcyNzYzLDEuNjAxODIgLTEuNDMxMzQsMy4yNDEyNiAtMi4wODE1Myw0Ljk1NjggLTAuMzcyNDQsMC45ODI3NCAtMC43NTM5NCwxLjc1Mzg0IC0xLjE0MzA4LDIuNDE2OTEgLTAuMDgxMSwwLjEzOTc0IC0wLjE2MjM2LDAuMjk3NDYgLTAuMjQ0NDMsMC40MjM3NSAtMC4zNTQxNCwwLjUzNzYzIC0wLjcyMDc3LDAuOTM1MTUgLTEuMDk4MTMsMS4yMjkzOCAtMC4xOTUzMSwwLjE1NDIxIC0wLjM5MTk3LDAuMzA5NjIgLTAuNTk1MzEsMC4zOTg5NCAtNS4zZS00LDIuNGUtNCAtMC4wMDEsOGUtNCAtMC4wMDIsMC4wMDEgLTAuMDM4OSwwLjI0OTA0IC0wLjA4MzIsMC41MjEyMiAtMC4wODMyLDAuNzQzMSAwLDIuOTg4MTggMy4wODg4NSw2LjU2MTYzIDYuMDExLDYuOTUzNTggMC42ODE1MiwwLjA2ODggMS4yNDU0OCwwLjE0MDQ0IDEuODAwOTMsMC4yMDg3OCBsIDUuMWUtNCwtNS4yZS00IGMgMC4zMDA3MiwtMC4yOTk5MSAwLjc0MjQxLC0wLjU5NjcyIDEuMTc4NzQsLTAuODk4MTQgMC44NjUwMSwtMC42MTQxNCAxLjg4ODU5LC0xLjIyNzI1IDMuMjQ3ODcsLTEuODI0NjkgLTAuMDA3LC0wLjA0NzcgLTAuMDExOCwtMC4wOTg4IC0wLjAyNTgsLTAuMTMzMzMgLTAuMDkzOSwtMC4yMzE2NCAtMC4xODI1MywtMC40NjYwOSAtMC4yNjYxMywtMC43MDI4IC0wLjYwODkyLC0xLjcyNTA5IC0wLjk0MDUxLC0zLjU4MDg1IC0wLjk0MDUxLC01LjUxNDM5IDAsLTMuNDMwNTMgMS4wNDI3LC02LjYxNzc2IDIuODI4NzYsLTkuMjYxNDUgMC41OTU0MywtMC44ODEzNCAxLjI3MzYzLC0xLjcwMTU0IDIuMDIzMTQsLTIuNDUxMDEgMi45OTc1NSwtMi45OTc0MSA3LjEzODU2LC00Ljg1MTkgMTEuNzEyNDYsLTQuODUxOSA5LjE0ODA4LDAgMTYuNTYzODUsNy40MTYyOCAxNi41NjM4NSwxNi41NjQzNiAwLDAuMzAzNzkgLTAuMDA4LDAuNjA1NjIgLTAuMDI0MywwLjkwNTM3IC0wLjAwNCwwLjA5MzIgMC4wNjY4LDAuMjU2MDQgLTAuMDEwMywwLjI4NDc0IDIuMTA0MDMsMC4yMDE2NSA0LjI1MzU0LDAuNTU2NDkgNi40MTI1MywwLjk3NzIgMC45NzQwNCwwLjE4MzYgMS45MzEzNCwwLjM5MjA5IDIuOTA4MzUsMC42MTU0NyAwLjg5NjUxLDAuMjExNTEgMS43ODUyMiwwLjQ1MzYxIDIuNjc5NDIsMC42OTc2MyAyLjgxMDk0LDAuNzQ2MjQgNS41NTg3MywxLjYzNDY5IDguMjUxNywyLjY3OTk0IDAuMDAyLDguNmUtNCAwLjAwNCwwLjAwMiAwLjAwNywwLjAwMyAwLjA2NjUsMC4wMjQ2IDAuMTMyMTEsMC4wNDkyIDAuMTk4NDQsMC4wNzM5IDAuMDAyLDYuMmUtNCAwLjAwMywxMGUtNCAwLjAwNSwwLjAwMiAxLjMxOTYyLDAuNTE2NzIgMi42MTAyNywxLjAzNjIzIDMuODc0NywxLjYxOTAyIDQuOWUtNCwyLjNlLTQgMC4wMDEsMi45ZS00IDAuMDAyLDUuMmUtNCAxLjk0MzYzLDAuODcwMjMgMy44MzU1NSwxLjc5ODEyIDUuNjAwMTgsMi44Mzg1OCAwLjc4MzY2LDAuNDYyMDcgMS4zNzUyMywwLjgwMzQ2IDEuODE1OTEsMC45Njc5IDAuMjIwMzQsMC4wODIyIDAuNDAzMzYsMC4xMjAzMSAwLjU1MzQ1LDAuMTA2OTcgMC4xNDk4NiwtMC4wMTM0IDAuMjY3NTIsLTAuMDc4MiAwLjM1NzYsLTAuMjAxMDIgMC4xODAzNiwtMC4yNDU5NyAwLjI1MTAzLC0wLjcyNTMgMC4yNTM3MywtMS40OTQ0OCAwLjAwMywtMC43NjkxOCAtMC4wNjI3LC0xLjgyODIyIC0wLjE1NTAzLC0zLjIzMzQgLTAuMTE4NTcsLTEuODA1NDkgLTAuMzQ1OCwtMy42MjAxNiAtMC42MjMyMSwtNS40MjkxMiAtMC4wODIsLTAuNTM0NzQgLTAuMTgzNDQsLTEuMDY2NjQgLTAuMjc4NTQsLTEuNTk5OSAtMC4yMzc4NCwtMS4zMzM0IC0wLjUxMzg1LC0yLjY1OTIgLTAuODI5NDEsLTMuOTc0NDQgLTAuMTI1MTIsLTAuNTIxNDYgLTAuMjQzNjIsLTEuMDQ0NDUgLTAuMzgwMzQsLTEuNTYxNjYgLTAuNDY0OTMsLTEuNzU4NjEgLTAuOTczOTYsLTMuNTAxMSAtMS41NjM3MiwtNS4xOTAzOCAtMC42NTYyNCwtMS44Nzk2NyAtMS4zODUyNywtMy43MDY1MyAtMi4xNzc2NSwtNS40NTk2MiAtMC43OTIzMiwtMS43NTI5MyAtMS42NDc5LC0zLjQzMTc0IC0yLjU1Njk1LC01LjAxNTE5IC0xLjgxODA2LC0zLjE2Njk3IC0zLjg1MDE1LC01Ljk1MTg3IC02LjAxODc1LC04LjE4MzQ4IC0xLjA4NDIxLC0xLjExNTcxIC0yLjIwMjI3LC0yLjA5MzM3IC0zLjM0NTAyLC0yLjkxMDk0IC0xMGUtNSwtN2UtNSAtNC4xZS00LDhlLTUgLTUuMmUtNCwwIC0wLjc3MzMyLC0wLjU1MzI0IC0xLjU2NDU4LC0wLjk5MjQ2IC0yLjM1MDc2LC0xLjQ2NDUxIC0wLjQ3NjEzLC0wLjI4NTg4IC0wLjk0MzQ0LC0wLjYzMDM1IC0xLjQyMzY4LC0wLjg4Njc2IC0zLjgxOTUyLC0yLjAzOTQ0IC03Ljc2MTcxLC0zLjE1MDU0IC0xMS43MTE5NSwtMy4zOTM2IHogbSAtOTUuNDIyMDgsNy41MTk5NiBjIC0yLjI4OTIzLC0wLjI4ODMyIC00Ljk1MjY5LDEuMTYyNjIgLTkuMzk3MzYsNC4zMDQxMyAtMS4zNDM2MiwwLjk0OTY3IC0yLjI3NzEyLDEuNTk3NjYgLTIuODU2MTYsMi4xMjU5NyAtMC4wNzQ1LDAuMDY3NyAtMC4xNjQ0NCwwLjE0MTMgLTAuMjI0NzksMC4yMDQxMiAtMC4yMTk2MiwwLjIyNyAtMC4zNjg4MywwLjQzMDU2IC0wLjM5Mjc0LDAuNjA4MjMgLTEwZS00LDAuMDE4MSAwLjAwNSwwLjAzNTQgMC4wMDUsMC4wNTMyIC0wLjAwMywwLjE2MDUgMC4xMTU1LDAuMzAyNzcgMC4yOTYxLDAuNDQwOCAwLjA1MjIsMC4wNDAyIDAuMTE1NTEsMC4wODAxIDAuMTgzOTcsMC4xMTkzNyAwLjUyMTMzLDAuMzAwODQgMS41OTY0LDAuNTg4MDUgMy4xNjgyOCwwLjkzNjg5IDEuODkzMTQsMC40Mjc1OSA0LjMzOTU1LDAuOTA1MDUgOC4xMzMzNiwxLjcyMTg2IDIuNzE1MjQsMC41ODQ2MSA0LjI3MjUxLDEuMDQyNjQgNi43MDc2LDEuNTU4NTYgMi4wMzIwMywwLjQzMDUyIDMuNTA4ODMsMC40Mzc2NyAzLjUwODgzLC0wLjI5MyAwLC0wLjI4MTk1IC0wLjU5MTk1LC0xLjU3OTk1IC0xLjA5MDM3LC0yLjY4NDU5IC02LjNlLTQsLTEwZS00IC05LjRlLTQsLTAuMDAyIC0wLjAwMiwtMC4wMDQgLTAuMTAwNDQsLTAuMTk5NCAtMC4xNjk2MiwtMC4zNzQ0NyAtMC4yNzc1MSwtMC41NzQ2NCAtMC4yMzU5OSwtMC40Mzc5IC0wLjQzNDg5LC0wLjg4OTcxIC0wLjY0NTk1LC0xLjM0MjA0IC0xLjhlLTQsLTMuMWUtNCAtMy41ZS00LC03LjJlLTQgLTUuMmUtNCwtMC4wMDEgLTEwZS00LC0wLjAwMyAtMC4wMDQsLTAuMDA2IC0wLjAwNSwtMC4wMDkgLTAuMzkyMzcsLTAuNjk2NTggLTAuODk5MjEsLTEuNTUxNTEgLTEuMzk3MzMsLTIuMzU0ODkgLTAuNjMwMTksLTEuMDAyNDggLTEuMjc1NzQsLTEuOTc1ODUgLTEuNjkzOTUsLTIuNDAyNDQgLTAuNzAzODcsLTAuNzE3OTUgLTEuMzY1MywtMS4yNzY1IC0yLjAyMjYyLC0xLjY3NzQyIC0wLjY1NzMxLC0wLjQwMDkxIC0xLjMxMDUyLC0wLjY0NDIxIC0xLjk5NzI5LC0wLjczMDcgeiBtIC0xMDUuODkzMjgsNS43MjM2OCBjIC0wLjEwOTc1LDAuMDI4IC0wLjIwOTQzLDAuMTg0MTkgLTAuMzEwMDYsMC4zMjA5MSAtMC4wMDUsMC4wMDYgLTAuMDA5LDAuMDA4IC0wLjAxNCwwLjAxNDUgLTAuMDYxLDAuMDc4OSAtMC4xMjY0OCwwLjA3ODUgLTAuMTg2NTUsMC4xOTc5MiAtMC4xNzA4LDAuMzQwOTkgLTAuMzM5MjQsMC44MzM4NiAtMC41MjE5MywxLjQ4MzExIC0wLjgxNjAyLDIuOTAwNTQgLTEuNzEwMyw1LjQ4MjU1IC0yLjUwOTQxLDcuMzUyMDEgLTEuMmUtNCwyLjhlLTQgLTRlLTQsNy42ZS00IC01LjJlLTQsMTBlLTQgLTAuMjQ3OTgsMC41ODA1MiAtMC40NjE0OCwwLjk1MDY5IC0wLjY4NTc0LDEuMzgwMjggLTAuMTM3MTMsMC4yNjI3OSAtMC4yNDAzMywwLjY3ODEgLTAuNDE3NTUsMC44MzMwMyAtMC4wNzcyLDAuMTIyNzggLTAuMTI1NSwwLjExMjk4IC0wLjE5NzQsMC4yMDk4IC0wLjcyMjA0LDAuNzIxODggLTAuMDc3MywwLjY2MzU2IDAuNjIyNywxLjAyODg4IDEuMDY2MTQsMC41NTY0MSA3LjgwODM5LDEuMjQ5MDIgOS43NTk2MSwwLjgyOTQxIDAuODA5NDUsLTAuMTc0MDggMS4yMjc2MywtMC4yMzk2NyAxLjQ5OTEzLC0wLjMwNTkzIC0wLjcwNzQ2LC0wLjYwNzU4IC0xLjIwMjc0LC0xLjY0NzkzIC0xLjkyNDQzLC0zLjgzODAxIC0wLjY5NDgyLC0yLjEwODUzIC0xLjMxMDk5LC0zLjYyNTE5IC0xLjkwMjczLC00Ljg1NjU1IC0wLjUyMjksLTEuMDg3NTEgLTEuMDIyOTYsLTEuOTA4ODQgLTEuNTM2ODUsLTIuNzQ1MDUgLTAuMDc1OSwtMC4xMjM0MSAtMC4xNDkxNSwtMC4yNzk4MiAtMC4yMjU4MywtMC40MDMwOCAtOWUtNSwtMS41ZS00IDFlLTQsLTMuNmUtNCAwLC01LjFlLTQgLTAuMzIzOSwtMC41MjA2NSAtMC41OTQ5NSwtMC45MTA5NiAtMC44MzA0NCwtMS4xNjM3NiAtMC4yMDE3OSwtMC4yMTY2MiAtMC4zNjg1OCwtMC4yNzk4OCAtMC41Mjk2OCwtMC4yODk5IC0wLjAyNjksLTAuMDAyIC0wLjA2MjIsLTAuMDUyMyAtMC4wODg0LC0wLjA0ODEgeiBtIC01Ny40MTQwNywxLjIxNzUgYyAtMC4xMjc1NSwtMC4wNTY1IC0wLjI3MDI5LDAuMDI2NSAtMC40MjExNiwwLjE2NjkxIC0zZS01LDRlLTUgLTQuOGUtNCwtM2UtNSAtNS4yZS00LDAgLTAuMjI2NzUsMC4yMTAyMyAtMC40OTY4MywwLjcyMTc1IC0wLjc5NjMzLDEuMzkzNzIgLTVlLTUsMWUtNCA1ZS01LDQuMWUtNCAwLDUuMWUtNCAtMC40MTQwMiwwLjkyNjE2IC0wLjg4MjQyLDIuMTcwNDYgLTEuNDkwODYsNC4wMjg3IGwgLTAuMDA0LDAuMDEgYyAtMC4wMDMsMC4wMDkgLTAuNjE0NjMsMS44MTcxNSAtMS4yMDYxMywzLjc1Mjc0IC0wLjEyMTgyLDAuMzk4NjYgLTAuMjM5MTcsMC40NTU3NCAtMC4zNDU3MSwwLjY0NzUgbCAtMC4wOTg3LDAuMjc5NTcgYyAwLjExNjk5LDAuMTMyNTEgMC4yODE2NSwwLjMxNjMxIDAuNTc0NjUsMC40ODUyNCAwLjQ3MzI5LDAuMjcyOTcgNy4wMjk3LDAuNTg0MDcgNy40MjMzMSwwLjA4NzkgbCAwLjQ2NzE2LC0wLjU4OTExIC0wLjAwOSwtMC4wMTc2IGMgLTAuMTY1NDksLTAuMTMyMjUgLTAuMzA2MzcsLTAuMjU5MjggLTAuNTU1LC0wLjcwNTM4IC0wLjM0MzA0LC0wLjYxNTQ4IC0wLjY1NjcyLC0xLjI0MjgyIC0wLjk0NDEzLC0xLjkxODIzIC0wLjE5OTk0LC0wLjQ2OTg2IC0wLjI5NDE2LC0wLjkzNzQ4IC0wLjQ5NzEzLC0xLjQ3NDg0IC0wLjU1MTUxLC0xLjMwNzQ1IC0xLjA0NTMzLC0yLjY4NzE4IC0xLjE5Nzg2LC0zLjU1MjI0IC0xMGUtNCwtMC4wMDggLTAuMDAzLC0wLjAxMDEgLTAuMDA0LC0wLjAxNzYgLTAuMTYyMTMsLTAuOTE1NDEgLTAuMzI4OTIsLTEuNTE2NiAtMC41MDc0NiwtMS45NTA3OSAtMC4xMjIyOSwtMC4yOTg4NSAtMC4yNDU2NCwtMC41NjM5NyAtMC4zODc1OCwtMC42MjY4MyB6IG0gMzguNjc1MTYsNzAuMTU1NCBjIC0yLjgxOTE0LC0wLjAyMyAtNS43NzkyNCwwLjAxIC04LjkzNDM0LDAuMDc2IC0zLjc4NjI1LDAuMDg0IC03LjA4NTI4LDAuMjE4MjUgLTEwLjA4MjA3LDAuNDI5OTUgMi44NjkxLC0wLjIwMjY4IDYuMDY3MTEsLTAuMzI2NSA5LjY1MjY0LC0wLjQxMTM1IDAuMTU5NTIsLTAuMDA0IDAuMjY4MjEsLTAuMDE0NSAwLjQyOTQzLC0wLjAxODEgMS45ZS00LC0xMGUtNiAzLjRlLTQsMCA1LjJlLTQsMCA2LjA4OTMzLC0wLjEzNTYyIDExLjQzMjc4LC0wLjEwMzk1IDE2LjQ1NDgxLDAuMTM2OTQgLTIuNDE5NDIsLTAuMTE2NDggLTQuODk5MDUsLTAuMTkyNDYgLTcuNTIwOTksLTAuMjEzNDMgeiBtIC0zNC44NTQ3MiwyLjkzODMzIGMgLTIuNTI5NDUsMC42MzcxIC01LjEyNzksMS40MDg4NCAtNy45NzkzNSwyLjM0NDA0IC0wLjAxMjIsMC4wMDQgLTAuMDE4MSwwLjAwNiAtMC4wMjc0LDAuMDA5IDAuMDE2OCwtMC4wMDYgMC4wMTEsLTAuMDAzIDAuMDI3OSwtMC4wMDkgMi44NTEzOSwtMC45MzUxIDUuNDQ5NTksLTEuNzA3NDYgNy45Nzg4NCwtMi4zNDQ1NiB6IG0gMTYuNjY0MSw1LjI2Nzg5IGMgLTAuMzQ1MDcsLTAuMDM1MyAtMC44MTIyMywtMC4wMTQ2IC0xLjQzODE1LDAuMDUyMiAtMC44MzQ1NywwLjA4OTEgLTEuOTUxNDYsMC4yNjA2MiAtMy40MzgwNCwwLjQ5MTk2IC0zLjc3ODY5LDAuNTg3OTggLTYuOTY5MzUsMS40MzI3MiAtOS4yNjU1OCwyLjA1MjA3IC0yLjAzMTM5LDAuNTQ3OTEgLTMuNTA0MjUsMC45NzMzNSAtNC41NTk0MSwxLjM1ODU3IC0xLjA1NTE3LDAuMzg1MjEgLTEuNjkyNDMsMC43MzAwNiAtMi4wNTI1OSwxLjExNzI0IC0wLjcyMDMyLDAuNzc0MzcgLTAuMzMyMDgsMS43MTc0NiAwLjA0MDMsMy40ODc2NSAwLjM3ODYxLDEuNzk5NzcgMC44Mzk4NSwzLjYwNTE0IDEuMzYyNzEsNS4zNzg0OCAzLjY1OTk5LDEyLjQxMzU4IDEwLjMzNDYxLDIzLjI0NTMgMTIuNzQ5MDksMTkuNDIwNTIgMC43OTA5OSwtMS4yNTMwMiAxLjUxNjg5LC0yLjc1MzcgMi4xOTQxOCwtNC41NzAyNiAwLjY3NzI5LC0xLjgxNjU3IDEuMzA1OTIsLTMuOTQ5MTkgMS45MDE2OSwtNi40NjUyNCAxLjE5MTU0LC01LjAzMjExIDIuMjUyMjgsLTExLjU5OSAzLjMxMDkxLC0yMC4yNDQ3NiAwLjE2NzA4LC0xLjM2NDQ4IDAuMjMwMDksLTEuOTcyNTIgLTAuODA1MTIsLTIuMDc4NDMgeiBtIDI1LjcxMDU4LDAuNDEzOTMgYyAtMC43Nzg1NywwLjAyNCAtMS4yNjk0MSwwLjExMTk1IC0xLjQxNDksMC4yODU3NyAtMS43ZS00LDJlLTQgLTEwZS00LDMuMmUtNCAtMC4wMDIsNS4yZS00IC0yLjllLTQsMy40ZS00IDIuOGUtNCwwLjAwMyAwLDAuMDAzIC0wLjEyNjUsMC4xNTUwNyAwLjAwOSwwLjk1ODczIDAuMzQ5ODUsMi4yNDUzNCAxLjdlLTQsNi42ZS00IDMuNGUtNCw4LjllLTQgNS4xZS00LDAuMDAyIDAuMzQ2MDUsMS4zMDM2OSAwLjkwNTc0LDMuMTA3NzYgMS42MjE2MSw1LjI0NDEyIDAuMDAxLDAuMDA0IDAuMDA0LDAuMDEwMSAwLjAwNSwwLjAxNCAxLjQxNTYxLDQuMjIzNzkgMy40NDM4Myw5Ljc0Nzk4IDUuNjY1MjgsMTUuMzE3NDEgNS4xZS00LDAuMDAxIDEwZS00LDAuMDAyIDAuMDAyLDAuMDA0IDAuMDA0LDAuMDEwOSAwLjAwOCwwLjAyMTQgMC4wMTI0LDAuMDMyNiAxLjQwMTUyLDMuNTEyNTIgMi41MjA4OSw2LjIzNTc1IDMuNDUyNSw4LjI5MDk3IDAuOTI5NTgsMi4wNTA3MyAxLjY3MDY5LDMuNDMyNDkgMi4zMTg3Miw0LjI3MzY0IDYuMWUtNCw3LjllLTQgMC4wMDEsMC4wMDIgMC4wMDIsMC4wMDMgMC4wMDEsMC4wMDIgMC4wMDIsMC4wMDUgMC4wMDQsMC4wMDYgMC4zMjQ0LDAuNDIwMSAwLjYyNTI0LDAuNzA0IDAuOTE0MTYsMC44NjYxIDAuMjg5MDEsMC4xNjIxNSAwLjU2NjQ1LDAuMjAzMTIgMC44NDMzNiwwLjEzNzQ2IDAuMjc2NTgsLTAuMDY1OCAwLjU1Mjg4LC0wLjIzNzkxIDAuODQwNzcsLTAuNTAwNzQgMC4yODgyMywtMC4yNjMxNSAwLjU4ODA5LC0wLjYxNzIgMC45MTEwNiwtMS4wNDc0OSAxLjFlLTQsLTEuNWUtNCA0ZS00LC0zLjZlLTQgNS4yZS00LC01LjFlLTQgMC41OTQ4LC0wLjc5MjQ3IDEuMjQwNCwtMS44NjIzNyAxLjkxMTUxLC0zLjEzMTU5IDllLTUsLTEuOWUtNCA0LjJlLTQsLTMuNGUtNCA1LjFlLTQsLTUuMmUtNCAwLjY3MTE1LC0xLjI2OTM3IDEuMzY3NDgsLTIuNzM4NDggMi4wNjI5MywtNC4zMjg5NCA4ZS01LC0xLjllLTQgNC4zZS00LC0zLjJlLTQgNS4xZS00LC01LjFlLTQgMS4zOTEsLTMuMTgxMzQgMi43NzgyNSwtNi44NDk0NiAzLjk1NTMyLC0xMC4zODEyOCBDIDkuMTAzMTYsNTIuODA5MTYgMTAuNjE0NDgsNDYuMjg5NzUgOS42MjIwOSw0NS4yOTczOCA4Ljg1NzMxLDQ0LjUzMjYgNC4wNTkyNSw0NC4wNzU0NCAtMy41NzE5NCw0My40NTE0OSAtOS40NDU2Niw0Mi45NzEyNCAtMTQuMzY5OTYsNDIuNDY3NzIgLTE2LjcwOTEyLDQyLjUzOTkyIFogTSA1OC4yMTAyLDYyLjgzNTMyIGMgLTAuMjI5OTksMC4wODc1IC0wLjM2MzA0LDAuMjg2NjggLTAuNDM4NzMsMC42MjYzMSAtMC4wNzU3LDAuMzM5NjQgLTAuMDk0LDAuODE5NyAtMC4wOTQsMS40Njg2NSAwLDEuNzMzMjIgMC4xNTcwOCwzLjgyOTYxIDAuNDM3MTgsNi4xMTY0MiAwLjI4MDEyLDIuMjg2OTkgMC42ODMxNyw0Ljc2MzgzIDEuMTc1MTIsNy4yNTc5NiAwLjk4Mzk2LDQuOTg3NzkgMi4zMjM1NywxMC4wNDM0MSAzLjc0NDQ3LDEzLjc4MDU1IDAuOTc4MzUsMi41NzI5IDEuNDQ3ODgsMy44NDcwNiAxLjk1NDQxLDQuMTcyMzYgMC4xMjY2MywwLjA4MTMgMC4yNTU1NSwwLjEwMzEyIDAuMzk1MzIsMC4wNzEzIDAuNDE5MjcsLTAuMDk1NiAwLjkzNiwtMC42NzUxOSAxLjc4MDI1LC0xLjU5MTEyIDAuNDM1OTMsLTAuNDcyOTIgMC45NzczMSwtMS4yMDcwMSAxLjU1NjUsLTIuMDQ0MzIgMC4xNzIzNiwtMC4yNDkyMyAwLjM1NzQzLC0wLjUzNDU4IDAuNTM5NSwtMC44MTAyOCAwLjMzNzY4LC0wLjUxMTQxIDAuNjk5MSwtMS4wOTM2OSAxLjA2MzUsLTEuNjgzMTEgMC40ODgxNywtMC43OSAxLjAxMzM4LC0xLjcyNDIxIDEuNTMxMTcsLTIuNjE4NDQgMS4wMTI0NCwtMS43NTAyNiAyLjAzNTE2LC0zLjYwMjg2IDMuMDQyMiwtNS41MjAwOCAwLjM5Mjg2LC0wLjc0ODYyIDAuNzg3ODQsLTEuNDg1MSAxLjE2MzIzLC0yLjIyNjczIDEuMzE4MzksLTIuNjA3MzcgMi41NjU5MywtNS4xODc0MSAzLjQwNzAzLC03LjE5OTU3IDAuNDY4NTksLTEuMTIxMDEgMC44MzE4LC0yLjA4OTI5IDEuMDU1MjMsLTIuODM2NTEgMC4yMjMzNCwtMC43NDczNSAwLjMwNjgxLC0xLjI3NDA5IDAuMjE1NDksLTEuNTEyMDYgLTEuNmUtNCwtNC4zZS00IC04LjFlLTQsLTEwZS00IC0wLjAwMiwtMC4wMDIgLTAuMDA5LC0wLjAyMyAtMC4wNjU3LC0wLjAzNDggLTAuMDc4NiwtMC4wNTYzIC0wLjA4NDcsLTAuMTQyMTIgLTAuMjEyNzMsLTAuMjY0NzggLTAuNTE5ODYsLTAuMzcyNTkgLTAuMzUyNSwtMC4xMjM3NCAtMC44ODEyMSwtMC4yNDEyOSAtMS42NTQxNiwtMC4zOTA2OCAtMC4xNTk2MSwtMC4wMzA4IC0wLjY1NjY0LC0wLjEyOTQxIC0wLjgzNzY4LC0wLjE2MzI5IC0xLjU3MjkxLC0wLjI5NDIzIC0zLjY0NzE0LC0wLjY0ODgxIC03LjI3NjA0LC0xLjQxNjQ1IC0zLjY4NjUzLC0wLjc3OTg0IC03LjAwNjksLTEuNzM1ODUgLTkuMzA1MzcsLTIuNDYzNDIgLTEuNTQ3OTcsLTAuNDkwMDQgLTIuMzk0NjcsLTAuNzYxOTYgLTIuODU0NjEsLTAuNTg3MDQgeiBtIDY2LjMyNDEyLDEwLjkxNTA5IGMgLTAuNDM4ODgsLTAuMTAwMjggLTEuMzAyMDIsLTAuMDIxOCAtMi4zMjk1OCwwLjA2NjEgLTEuMzQyMjUsMC4xMTQwMiAtMy4wMTA5NywwLjI2NzE3IC01LjQxMzYyLDAuMjkzIC00LjI2OTg0LDAuMDQ1OSAtOS4zNDc5OCwtMC4yMDc5MSAtOS42MDU2MiwtMC4yNDcwMSAtMC40MDgwNiwtMC4wNjE5IDAuNTU4MzYsMy44NTM4NyAxLjg1NDY3LDguMjM4MjYgNmUtNSwxLjhlLTQgLTVlLTUsMy4zZS00IDAsNS4xZS00IDEuMjk2MjksNC4zODQyNyAyLjkyMjU0LDkuMjM2OTYgMy44MzQ5MSwxMS4wNDg0MiAxLjU1MDY5LDMuMjYxOTkgMi4zMTY4OCwzLjk4MjQ3IDMuNjE3MzUsMC45Mzg5NyAxLjQ2MDk3LC0zLjQxOTE0IDcuNDUyMzYsLTE2LjIxMzkxIDguMTEzNzIsLTE5LjU0NTA2IDAuMDk0NSwtMC40NzU4OCAwLjA4LC0wLjc1ODU1IC0wLjA3MTgsLTAuNzkzMjQgeiBtIC0zMy41MzY5Nyw3OC40MzA4NyBjIC0wLjk1MTY4LC0wLjA3OTMgLTEuNzAxMzIsLTAuMDU3NSAtMi4zMTMwNCwwLjE0MjExIC0yLjNlLTQsOGUtNSAtMi45ZS00LDQuNWUtNCAtNS4yZS00LDUuMmUtNCAtMC4wODkxLDAuMDI5MSAtMC4xNjIzNSwwLjA4MTIgLTAuMjQ1NDYsMC4xMTgzNCAtMC4xODc2OSwwLjA4MzkgLTAuMzY5MjUsMC4xNzY3MSAtMC41Mjg2NSwwLjMwNjk2IC0wLjA5MDEsMC4wNzM1IC0wLjE2ODE4LDAuMTcyNTUgLTAuMjUwMTIsMC4yNjI1MSAtMC4xMzI5LDAuMTQ1NzcgLTAuMjYwMDUsMC4zMDU1OSAtMC4zNzM2MiwwLjQ5ODY4IC0wLjA1MjUsMC4wODkyIC0wLjA5OTUsMC4xOTU5NCAtMC4xNDgzMSwwLjI5NjExIC0xZS00LDIuMWUtNCAtNC4xZS00LDNlLTQgLTUuMWUtNCw1LjFlLTQgLTAuMjU0OSwwLjUyMTQ4IC0wLjQzNDU5LDEuMzQwOTQgLTAuNjEwMywyLjIwMTQyIC0wLjA3NjksMC4zNzU1IC0wLjE3NDk3LDAuNjM0NjUgLTAuMjQxODUsMS4wODQ2OSAtMC4xNDAzOCwwLjkzOTY4IC0wLjI1NjQzLDIuMjUxMDEgLTAuMzczNjIsMy41NTc0IC0wLjA1MjEsMC41NjM4NyAtMC4xMTI4OSwwLjkwOTY2IC0wLjE2MzgxLDEuNTYxMTUgLTMuNmUtNCwwLjAwNSAtNi44ZS00LDAuMDA2IC0wLjAwMSwwLjAxMDkgdiA1LjJlLTQgYyAtMC4yOTI0LDMuNzQ0MDUgLTAuNjI2MDksNi45NjE0NSAtMC43NDI1OSw3LjE0OTk1IC0zLjNlLTQsNS40ZS00IC03LjhlLTQsMC4wMDQgLTAuMDAxLDAuMDA2IC03ZS01LDUuM2UtNCA3ZS01LDAuMDAxIDAsMC4wMDIgLTAuMTgwMjcsMC4yOTgzNCAtMC4yMzUwMywyLjE4OTkxIC0wLjE5NDgyLDQuMjAwMjYgMCwxLjllLTQgMCwzLjNlLTQgMCw1LjJlLTQgMS42ZS00LDAuMDA5IDMuNWUtNCwwLjAxNTcgNS4yZS00LDAuMDIzOCAyZS01LDAuMDAxIC0zZS01LDAuMDAyIDAsMC4wMDMgMC4wNDEzLDIuMDA5NjQgMC4xNzc0NSw0LjEyNTAxIDAuMzc4NzgsNC44ODA4NCAxLjllLTQsN2UtNCAzLjRlLTQsMC4wMDMgNS4yZS00LDAuMDA0IDVlLTQsMC4wMDIgNi4yZS00LDAuMDA4IDAuMDAxLDAuMDEgMC4xMTQ2MSwwLjQyNTMxIDAuMjQyMjUsMC43NTI0MSAwLjQxMDgzLDAuOTg1OTggMC41MDYyOCwwLjcwMTQ5IDEuMzc5MTgsMC41NjE0NiAzLjM1NzQyLC0wLjI4MjE1IDEuOTgxMDEsLTAuODQ0OCA4LjgxOTIxLC00LjYxMTYzIDEwLjg3Njg1LC01Ljk5MTM2IDAuNzc2MTEsLTAuNTIwNDEgMi4wODU4LC0xLjI4ODg0IDIuOTEwNDIsLTEuNzA3MzkgMC41NTcwNCwtMC4yODI3NCAwLjk4MTczLC0wLjQ3NjY5IDEuMjA3NjgsLTAuNzUyOTMgMC4xMTI4NywtMC4xMzc5OSAwLjE3NjA5LC0wLjI5NjcgMC4xODEzOCwtMC40OTcxMyAxZS01LC0xLjNlLTQgMCwtMy44ZS00IDAsLTUuMWUtNCAwLjAwNSwtMC4yMDA0MyAtMC4wNDgsLTAuNDQyNzkgLTAuMTY2OTEsLTAuNzQ4MjggdiAtNS4yZS00IGMgLTNlLTUsLThlLTUgM2UtNSwtNC4zZS00IDAsLTUuMWUtNCAtMC4yMzg1MywtMC42MTE5OCAtMC43NDI2NCwtMS40NzY5MiAtMS41Nzg3MiwtMi43NjY3NiB2IC01LjFlLTQgYyAtNWUtNSwtOWUtNSA2ZS01LC00LjRlLTQgMCwtNS4yZS00IC0wLjgzNjI0LC0xLjI5MDEgLTIuMDA1MTUsLTMuMDA1MTYgLTMuNTcyMzksLTUuMzE1NDQgbCAtNS4xZS00LC01LjJlLTQgYyAtOGUtNSwtMS4xZS00IDdlLTUsLTRlLTQgMCwtNS4xZS00IC0wLjkxNzExLC0xLjM1MTkzIC0yLjE1NDc1LC0zLjM3MzIgLTIuNzUxMjYsLTQuNDkyMjQgbCAtNS4xZS00LC01LjFlLTQgYyAtOWUtNSwtMS41ZS00IDhlLTUsLTMuN2UtNCAwLC01LjJlLTQgLTAuNDY0MiwtMC44NzA5IC0wLjg4NTIyLC0xLjU5MjM2IC0xLjI4NzI2LC0yLjE4NzQ2IGwgLTUuMmUtNCwtNS4yZS00IGMgLTllLTUsLTEuM2UtNCA5ZS01LC0zLjllLTQgMCwtNS4yZS00IC0wLjA3MTMsLTAuMTA1NDcgLTAuMTM4NDcsLTAuMTU1NDQgLTAuMjA4NzcsLTAuMjUzMjEgLTAuMzI1NzgsLTAuNDUyODYgLTAuNjQ2MSwtMC44NzQ0NyAtMC45NjU4NCwtMS4xNzQ2MSAtMC43Nzc5NSwtMC43MzAyNCAtMS41Nzc3LC0xLjA0NjM2IC0yLjU5NTcsLTEuMTMxNzEgLTAuMDAyLC0xLjdlLTQgLTAuMDA0LDEuOGUtNCAtMC4wMDYsMCBsIDUuMWUtNCwtNS4yZS00IGMgLTcuNmUtNCwtNmUtNSAtMC4wMDEsN2UtNSAtMC4wMDIsMCB6IG0gLTE0MS41Nzg0NCw1LjgwODk1IGMgLTAuMjQyOCwtMC4wODYgLTAuNDczMzIsLTAuMDc3MyAtMC42ODc4MiwwLjAzNzcgLTAuMDA1LDAuMDAyIC0wLjAwOSwwLjAwOCAtMC4wMTM0LDAuMDEwMyAtMC40MzIxNSwwLjIzMzU4IC0wLjg2NDI1LDAuNjEzMDkgLTEuMjkyNDMsMS4wNjA0IC0wLjEzMTQsMC4xMzczMiAtMC4yNjEzNCwwLjMwMDI1IC0wLjM5MTcxLDAuNDU1NzkgLTAuMzEzMzEsMC4zNzM5NCAtMC42MjIyNSwwLjc5NTU2IC0wLjkyNjU2LDEuMjY2MDcgLTAuMTI1MDMsMC4xOTMzMyAtMC4yNTExNCwwLjM3Nzg2IC0wLjM3NDEzLDAuNTg2MDEgLTAuNDA3NjIsMC42OTAxNCAtMC44MDc3NywxLjQzMzI4IC0xLjE4NTk4LDIuMjY2MDEgdiA1LjJlLTQgYyAtMC40MjIyOSwwLjkyOTg1IC0wLjgyMjk0LDEuOTM5MDEgLTEuMTk0MjQsMy4wMDU1IHYgNS4yZS00IGMgLTIuMmUtNCw2LjNlLTQgLTNlLTQsMC4wMDEgLTUuMmUtNCwwLjAwMiAtMS4yZS00LDMuN2UtNCAtNC4zZS00LDYuOWUtNCAtNS4xZS00LDAuMDAxIC0wLjczMzcyLDIuMTA4MDMgLTEuMzQ4MDgsNC40NDM4NyAtMS43OTQ3Myw2LjgzMzE3IC0wLjQ0MDUyLDIuMzY5NjEgLTAuNzEyMjQsNC43OTUwMiAtMC43NTgwOSw3LjExMzc4IC0xMGUtNCwwLjA3MTkgLTAuMDEyNSwwLjE0NzQxIC0wLjAxMzQsMC4yMTkxMSB2IDUuMWUtNCBjIC0wLjAxNjksMS4yMzM2NCAtMC4wNDg3LDIuMTM5MTQgMC4wMjE3LDIuODM4MDcgMTBlLTYsMS4zZS00IC0xZS01LDMuOWUtNCAwLDUuMmUtNCAwLjA3MDQsMC42OTg3NiAwLjI0Mjg2LDEuMTkxMzYgMC42MzQ1OSwxLjU5ODg3IDAuMzkxODMsMC40MDc2MiAxLjAwMjksMC43MzAxOCAxLjk1MDI2LDEuMDg5ODYgMC45NDczNywwLjM1OTY3IDIuMjMxMjUsMC43NTYzMyAzLjk2ODI0LDEuMzExNTQgMy4xNDUyMywxLjAwNTM3IDYuMzUzNjksMi4wNDM3OCA3LjEyOTgsMi4zMDc4NyAxLjkzMjQ4LDAuNjU3NTkgMi43OTY1NCwwLjU0MjE0IDMuMjE3MzcsLTAuMzg1NSAwLjA3MjYsLTAuMTYwMTcgMC4xNTk4MywtMC4yOTE4MSAwLjIwNzIyLC0wLjUwNDM3IDQuNWUtNCwtMC4wMDIgNy4yZS00LC0wLjAwNSAwLjAwMSwtMC4wMDcgM2UtNSwtMS40ZS00IC0zZS01LC0zLjhlLTQgMCwtNS4yZS00IDAuMTk5NDMsLTAuODk3NjMgMC4yNzQwOSwtMi4wMzQyMyAwLjI0MzkxLC0zLjM0MDg4IHYgLTUuMmUtNCBjIC0wLjA2MDYsLTIuNjE4OTkgLTAuNTQsLTUuOTE2MTQgLTEuMjY4MTQsLTkuMzE2MjMgdiAtNS4xZS00IGMgLTAuMzY0MDgsLTEuNjk5OTggLTAuNzkwNTQsLTMuNDI1NDUgLTEuMjU3ODEsLTUuMTA1MTIgdiAtNS4xZS00IGMgLTAuNDY3MjYsLTEuNjc5NjUgLTAuOTc1MjksLTMuMzEzMDQgLTEuNTAzMjYsLTQuODI4NjUgdiAtNS4yZS00IGMgLTAuNTI3OTcsLTEuNTE1NTcgLTEuMDc1OTMsLTIuOTEzMzggLTEuNjIyMTMsLTQuMTIxMTkgdiAtNS4yZS00IGMgLTAuNTQ2MTQsLTEuMjA3NjUgLTEuMDkwOTEsLTIuMjI1NDUgLTEuNjEyODIsLTIuOTgxNzMgbCAtNS4xZS00LC01LjJlLTQgYyAtMC4yNjA4NSwtMC4zNzc5MyAtMC41MTU5MSwtMC42OTAzNiAtMC43NjI3NSwtMC45Mjg2MiBsIC01LjJlLTQsLTUuMmUtNCBjIC0wLjI0Njc2LC0wLjIzODExIC0wLjQ4NTE1LC0wLjQwMTU3IC0wLjcxMjYxLC0wLjQ4MjE0IHogbSA5NC4xNzcxOSw1LjkwODE3IGMgLTAuMjc3MDMsLTAuMDQyIC0wLjU0OTk0LDAuMDE5NCAtMC44MjM3MiwwLjA1NjggLTAuMTkyNjUsMC4wMjYzIC0wLjM4NTg5LDAuMDM1NiAtMC41NzcyMiwwLjEwMTI5IC0wLjIyMjMxLDAuMDc2MyAtMC40NDMxNywwLjIxNzE1IC0wLjY2NDA1LDAuMzQ2NzUgLTAuMTg4NTksMC4xMTA2NiAtMC4zNzc1MywwLjE5OTI2IC0wLjU2NTM0LDAuMzQ4ODEgLTAuMjIzNSwwLjE3Nzk1IC0wLjQ0NTk0LDAuNDI1NzYgLTAuNjY4NjksMC42NTg4OCAtMC4xODMxLDAuMTkxNjIgLTAuMzY2NDgsMC4zNTYwMSAtMC41NDkzMiwwLjU4NDk3IC0wLjIyOTQ0LDAuMjg3MzIgLTAuNDU4OTIsMC42NTAxMiAtMC42ODgzMywwLjk5NjMzIC0wLjE2Njg0LDAuMjUxNzYgLTAuMzMzNzIsMC40NzQwOSAtMC41MDA3NCwwLjc1NzA2IC0wLjc4ODMsMS4zMzU1IC0xLjU4MDMsMy4wMjUwNyAtMi4zODMzMiw1LjA1ODA4IC0wLjAyOTgsMC4wNzUzIC0wLjA1OTEsMC4xMzQ1NSAtMC4wODg5LDAuMjEwODQgLTAuODMyMDQsMi4xMzA5NCAtMS42NzYzNyw0LjYyNDU4IC0yLjU0NDAzLDcuNTA3NTYgLTMuOTI1OTEsMTMuMDQ0ODcgLTMuNTI4MDksMTMuNzIyNTcgLTMuMjE4OTIsMTQuNzkzNDcgMC4zMDkxOCwxLjA3MDggMTEuMTU5NTYsLTAuNzY0MSAxMy41ODE2LC0xLjA2NTEgMi40MjIwNCwtMC4zMDEgMTAuODAwMzMsLTEuNTI5NiAxMy4yMjcxLC0yLjgwNjU2IDAuMjA1NywtMC4xMDgyNCAwLjIzNzcsLTAuNDIyMzIgMC4xNTA4OSwtMC45MjA4NyAtMC4wODY4LC0wLjQ5ODU2IC0wLjI5MjM5LC0xLjE4MTU5IC0wLjU2MTcyLC0yLjAyNzc5IC0yLjUzMTY1LC03Ljk1NDIzIC0zLjE1NzU2LC05Ljc1MjY2IC00LjM3Mzg5LC0xMi41NjY2NyAtMS42NDE2MywtMy43OTc5NyAtMy4xNjY2NiwtNi43MDU5OSAtNC42MTI2NCwtOC43MTQ3MSAtMC43MjI5OSwtMS4wMDQzNyAtMS40MjYzNiwtMS43ODM3NCAtMi4xMTQ2LC0yLjMzNzMzIC0wLjY4ODI0LC0wLjU1MzU5IC0xLjM2MTI0LC0wLjg4MTM1IC0yLjAyNDE3LC0wLjk4MTg1IHogbSAtNjEuNjI3MjQsMS4zNzYxNCB2IDUuMmUtNCBjIC0wLjk5NDQ4LC0wLjE0OTk4IC0yLjExNDEzLDAuMTUwMTggLTMuNDQyNjksMC44ODc4IC0xLjMyODc3LDAuNzM3NzIgLTIuODY3MDEsMS45MTI5OCAtNC42OTg5MywzLjUxMjk2IGwgLTAuMDA4LDAuMDA4IGMgLTAuMDAyLDAuMDAxIC0wLjAwMiwwLjAwMyAtMC4wMDQsMC4wMDQgLTEuODQyNTgsMS42MDk4NyAtMy4zMTk3MywzLjAwOTk1IC00LjUxMjksNC4zNjgyMSAtMC4wMDEsMC4wMDEgLTAuMDAzLDAuMDAyIC0wLjAwNCwwLjAwNCBsIC0wLjAwNywwLjAwNyBjIC0xLjE5Nzg5LDEuMzY1MSAtMi4xMTAxMSwyLjY4ODgzIC0yLjgxODk1LDQuMTQyMzggLTdlLTUsMS40ZS00IDZlLTUsMy45ZS00IDAsNS4yZS00IC0wLjcxMDc3LDEuNDU3NjEgLTEuMjE2NzIsMy4wNDcwNSAtMS42MDQwNCw0LjkzODcyIC0xMGUtNCwwLjAwNiAtMC4wMDIsMC4wMTI1IC0wLjAwMywwLjAxODEgLTAuMzgyNzUsMS44NzM1NiAtMC42NDk1LDQuMDQyNDcgLTAuODgwMDUsNi42Nzg2NiAtNS40ZS00LDAuMDA2IC0wLjAwMSwwLjAxMDkgLTAuMDAyLDAuMDE3MSAtMC4wNTk3LDAuNjgzNDYgLTAuMTI4NzUsMS4yMzE2NCAtMC4wNjYxLDEuNjg5ODIgMi4xZS00LDAuMDAyIDMuMWUtNCwwLjAwNCA1LjJlLTQsMC4wMDYgMC4wMzEzLDAuMjI0NzQgMC4wOTY2LDAuNDI2ODggMC4yMDg3NywwLjYxMjg4IDAuMDA3LDAuMDEyMyAwLjAyMDUsMC4wMjMgMC4wMjg0LDAuMDM1MSAwLjExNTMzLDAuMTc4NTkgMC4yNjk5MSwwLjM0MzkzIDAuNDk1MDcsMC40OTYxMyAwLjMzNzA1LDAuMjA3MSAwLjg5ODM1LDAuMzg2MSAxLjU3MDQ0LDAuNTYzOCAxLjA0MzQxLDAuMjc3OCAyLjYzODE2LDAuNTQ2NyA0LjgzNjkyLDAuODUyMSAyLjkxOTc3LDAuNDExNSA2LjY5MjE0LDAuODY3NiAxMi41OTI1MSwxLjU5MTcgMS4zMTQ3NywwLjE2MTIgMy4xMjYzLDAuMjY4NCA0LjY1ODYzLDAuMjg0NyAxLjUyMzA3LDAuMDE2IDIuNzcwMzIsLTAuMDU3IDIuOTcyNDMsLTAuMjU2OCAzLjJlLTQsLTRlLTQgMC4wMDMsLThlLTQgMC4wMDMsMCAwLjE3Mjc2LC0wLjE3MyAwLjI3ODYxLC0wLjU3MTYgMC4zNDE1OCwtMS4xMDEyIDAuMTY4NTMsLTEuNTgxNyAtMC4xMjM4MywtNC41NjQgLTAuNjYzNTMsLTcuOTE0NzggLTAuODMzMTgsLTUuMTc2MDUgLTIuMjc2OSwtMTEuMjY2MzcgLTMuODQ3ODIsLTE1LjAzOTkxIC03ZS01LC0xLjZlLTQgNmUtNSwtMy42ZS00IDAsLTUuMmUtNCAtMC40MTY3MiwtMS4wMDA5NyAtMC44MjI3MiwtMS44ODMxNyAtMS4yMjc4NCwtMi42NDc5IC03ZS01LC0xLjRlLTQgOGUtNSwtMy43ZS00IDAsLTUuMmUtNCAtMC4xNDk5LC0wLjI4MzAxIC0wLjMwMjg2LC0wLjQ2ODM1IC0wLjQ1MzIsLTAuNzE5MzMgLTAuMjU1OCwtMC40MjcwMiAtMC41MDk4NywtMC44ODk0IC0wLjc3MTAxLC0xLjIyNDIyIC0wLjQxNDY0LC0wLjUzMTYyIC0wLjgzOTM1LC0wLjk0Nzc0IC0xLjI4NDY4LC0xLjI0OTUzIGggLTUuMWUtNCBjIC0wLjQ0NTQzLC0wLjMwMTggLTAuOTExNDIsLTAuNDg5MjUgLTEuNDA4NywtMC41NjQzMSB6IG0gMjQuNjkxNTEsNS4xMzQwNSBjIC0wLjE5NDE3LDAgLTAuNDA4OTcsMC4wOTY1IC0wLjY0MDI3LDAuMjc3NTEgLTAuMjMxMiwwLjE4MTEzIC0wLjQ3OTEzLDAuNDQ2NjEgLTAuNzM5NDksMC43ODU0OCB2IDUuMmUtNCBjIC0wLjUyMDg0LDAuNjc3OTYgLTEuMDkyMzksMS42NDc5NyAtMS42ODI1OCwyLjgxNzQgLThlLTUsMS41ZS00IDhlLTUsMy41ZS00IDAsNS4xZS00IC0wLjU5MDIxLDEuMTY5NSAtMS4xOTkyOSwyLjUzODAyIC0xLjc5NTc2LDQuMDEyNjggdiA1LjFlLTQgYyAtMS4xOTI5OSwyLjk0OTUzIC0yLjMzNTYxLDYuMzIyOTIgLTMuMTc1LDkuMzc1MTQgdiA1LjJlLTQgYyAtMC40NzU4NywxLjczMDM4IC0wLjgxNDUxLDMuMjk2MzggLTEuMDQ5NTUsNC42ODQ0NyAtMC4xNjc3OCwwLjk5MzQxIC0wLjI4NTg4LDEuOTA0NDEgLTAuMjg5MzgsMi42MDE5MSAtMC4wMDIsMC40NzI1IDAuMDE4OSwwLjg5OTYgMC4xMDQ5LDEuMTk3OSAwLjA3ODEsMC4yNzA1IDAuMTk0NzMsMC40NjMyIDAuMzUzOTgsMC41NjU4IDAuOTU5MjYsMC42MTgyIDE3LjUzNTk4LDAuODE3MSAyMi44MjE4NywwLjI3MzkgMC42ODM2NiwtMC4wNyAxLjE1MzgzLC0wLjI0MDMgMS41MTg3NywtMC40NzA4IDAuMjQ1MzQsLTAuMTU0MyAwLjQ3MDUzLC0wLjMxOTEgMC41NzE1NCwtMC41NTg2IDIuOGUtNCwtN2UtNCAxMGUtNCwtOWUtNCAwLjAwMiwwIHYgLTZlLTQgYyAwLjA4MzQsLTAuMTk5IDAuMTE3MDgsLTAuNDI5MiAwLjEwMDc3LC0wLjY5MzUgdiAtNWUtNCBoIC01LjJlLTQgYyAtOGUtNSwwIC05LjVlLTQsMCAtMC4wMDEsMCAtMC4wMzM1LC0wLjUyNzYgLTAuMjY1NSwtMS4xOTEgLTAuNjk3NjQsLTIuMDEzOCAtOGUtNSwtMmUtNCA5ZS01LC00ZS00IDAsLTZlLTQgLTMuN2UtNCwtN2UtNCAtNy40ZS00LDAgLTEwZS00LDAgLTAuNDM0NDEsLTAuODI2MTcgLTEuMDcwNDcsLTEuODEzNDQgLTEuOTA5NDQsLTIuOTg1MzEgbCAtNS4yZS00LC01LjFlLTQgYyAtMS4yMjI0OSwtMS43MDc0NyAtMy4wMTcyNiwtNC40NTM3IC0zLjk4ODksLTYuMTAyOTkgbCAtNS4yZS00LC01LjJlLTQgYyAtMC45NzE1LC0xLjY0OTA4IC0yLjg0MDQ4LC00LjgyNDA5IC00LjE1MzI0LC03LjA1NTM4IGwgLTUuMWUtNCwtNS4yZS00IGMgLTAuMDEwNSwtMC4wMTc4IC0wLjAyLC0wLjAzMDggLTAuMDMwNSwtMC4wNDg2IC0xLjE1MjA1LC0xLjk1MzY4IC0yLjI1NjAxLC0zLjU5NTMyIC0zLjE4MDY5LC00Ljc1ODg5IC0wLjAwOCwtMC4wMSAtMC4wMTc2LC0wLjAyNSAtMC4wMjUzLC0wLjAzNDYgLTEwZS00LC0wLjAwMiAtMC4wMDMsLTAuMDA1IC0wLjAwNSwtMC4wMDcgQyA4LjI5ODEzLDE3MS42ODIwMyA3Ljg3NTg4LDE3MS4yMTkxMyA3LjUxODg4LDE3MC45MDI3NiA3LjE2MTg0LDE3MC41ODY0IDYuODY5NzIsMTcwLjQxNyA2LjY2MDU0LDE3MC40MTcgWiIgc3R5bGU9ImRpc3BsYXk6aW5saW5lO2ZpbGw6I2ZmZmZmZjtmaWxsLW9wYWNpdHk6MSIgaWQ9InBhdGg0MjgtNS05Ii8+JiN4YTsgICAgICA8cGF0aCBkPSJtIDE4OC4xNDEyOSwtOTYuODQzODMgYyAtMTYuMzUxNTcsLTAuMTc0NTUgLTMyLjQzMjc3LDYuODA1MiAtNDUuNzA5ODgsMjEuNjk2ODcgLTEuNjMyOTIsMS44MzE1MiAtMy4yMDYwNywzLjkyMjg4IC0zLjQ5NTkxLDQuNjQ3MjYgLTEuMDE1NzksMi41Mzg4IC0xLjAxOTQ0LDIuNTM3MTggLTcuMzk5NTQsLTMuMzMyNjEgLTIyLjU3MzMsLTIwLjc2NzgxIC00OC42NjkxOSwtMTguMTA2MjUgLTYyLjkwMTA3LDYuNDE1MTEgLTMuNjc1OTEsNi4zMzM1NSAtNi4wMTU3NywxMy4xOTE2MiAtNi44NTAyMywxNy45OTU4IC0wLjU3ODg0LDMuMzMyNTcgLTEuNzE0NjQsMy4xODI5MSAtMy42MTU4LDIuNjYwMzEgLTIuMzE0NTQsLTAuNjM2MjcgLTYuMTU4NzUsLTEuOTU3ODUgLTE2LjU5MzMsLTIuOTA0MjIgLTguMjYxODEsLTAuNzQ5MzIgLTcuOTczODgsLTAuNDk5NCAtMTAuMTQ2MTYsLTUuMjE5MzIgLTAuODYzMTgsLTEuODc1NTcgLTIuMzk0NTksLTMuNjA4NjggLTQuOTA3MTksLTcuMzY0NDEgLTIuMTAyMiwtMy4xNDIzIC03LjczMjQ4LC04LjU4Njc4IC0xMS40NDY4NSwtMTEuMDY5MDkgLTExLjAxNTQ5LC03LjM2MTY2IC0xNy4zMDgwNywtNy44NTkwMiAtMjkuNjU0NTIsLTIuMzQzMDEgLTQuMDM3NzEsMS44MDM5NSAtNC41ODY1NywxLjc0NzY3IC05LjUwODk4LC0wLjk3OTI3IC03LjYxNDYzLC00LjIxODM4IC0xMC44MTYyNSwtNS40ODU3OCAtMTYuMjQ5MTMsLTYuNDMzMiAtMTguMzI2OTksLTMuMTk1OTMgLTM5LjkwODQ3LDkuMjAyMDggLTQ5LjM5MzM3LDI4LjM3NTUzIC0xOC4zMTYwMywzNy4wMjUzMiAtMTAuOTgyNzUsMTExLjg2NDQ5IDEwLjk2MTA5LDExMS44NjQ0OSAyLjc3MjUsMCAyLjgyMTQ0LDAuMDU1OCAzLjI1MjUxLDMuNzA0MTcgMS4xODA3NSw5Ljk5MzEyIDUuNzE4ODgsMTcuMzYyODYgMTUuOTUxNDgsMjUuOTAzODQgMTEuNTIwNzUsOS42MTYxOSAxNi40NzM1LDguNDA5MDQgMjguNDg0NTcsLTYuOTQyMjEgMy43OTAzNywtNC44NDQ0NSAzLjMwNTA2LC00Ljg1OTQxIDcuNTk0ODgsMC4yMzU2NSA2Ljc1MTMxLDguMDE4NTQgMTguNTAxNjMsMTYuOTYyMjcgMjIuMjg0OTUsMTYuOTYyMjcgMi4wMjcyNSwwIDYuMzI0MjQsLTMuNjQ2ODMgMTAuNTk5ODcsLTguOTk1ODQgNC4xODI5NiwtNS4yMzMwOSA0LjM5MTI3LC01LjI4OTE3IDkuNjk3MDgsLTIuNjAwMzUgOC4xMDc0NSw0LjEwODU4IDguNjgxNDIsNS4zMjkwOCA0LjI1ODY2LDkuMDU4ODggLTcuMDg0ODksNS45NzQ3NSAtMTAuNzI2MDksMTEuNTE2NDIgLTIwLjQ0MTEzLDMxLjExMjMxIC0xMC41MDMzNCwyMS4xODU5NCAtMTUuMDQ5NjcsMjYuOTE3OTIgLTI2LjAyMjE5LDMyLjgwODg1IC02LjI0NDk2LDMuMzUyNzYgLTkuMjk0MDIsNS40MTk2MSAtMTEuMDI2NzIsNy40NzQ0OCAtMS43Mjc1MSwyLjA0ODc3IC0yLjAxMzQ2LDAuNDY3MzcgLTIuNTYxMDgsLTIuMjgyNTUgLTEuMDYxMSwtNS4zMjg0MiAtNS4yMDA2NCwtMTEuMzQyNjcgLTguMjExMzgsLTEzLjk1MTA5IC0zLjEwMDI3LC0yLjY4NTkzIC01LjMxNjU1LC00LjEyNzkyIC04Ljk3ODI3LC0yLjAwNDAxIC0zLjA2MTksMS43NzYwMSAtNi4yNDk1OCw0LjgyNjc3IC04LjE3MzE0LDguMTk1ODggLTQuMjA4NjQsNy4zNzE0OSAtNC4zNzA2NiwxNi4wMDczNSAtNS4xNzE3OCwyMC41MDYyNCAtMC41NjIzOSwzLjE1ODIzIC0xLjYwMzMzLDUuMTA5MDMgLTMuMjYyODUsNy4zODYxMiAtNy43Njg0NSwxMC42NTkzOSAtNC4zMzAxNiwyOC4wMTA1OSA4LjAxMTkxLDQwLjQzMjE5IDE1LjQzODk4LDE1LjUzODIgMzkuMTEyMzgsMjMuMjk3NyA3NC44Mjc0OCwyNC41MjYxIDExLjE4NDk2LDAuMzg0OSAxMS4wODk4MiwwLjM4NDcgMjEuNTE5NjIsMC4wMzEgMTEuODA1NTIsLTAuNDAwNCAxOS45NDM3NSwtMS4yMTA5IDM3LjE5MjU2LC0zLjcwNTIgMjcuNDMwMTMsLTMuOTY2NyA2NC40ODU2NywtMTQuNzExNSA5My42ODc4MiwtMjcuMTY1MiA1Mi4zNDEwNSwtMjIuMzIyMiA4Ni4zODU0MiwtNDIuNzI5IDEzNi4wODYyNywtODIuMTg1MjEgMy44MDIwNywtMy4wMTgzOSA4Ljg5Mjk2LC03LjEwNTQxIDExLjUxNTA1LC05LjA0NjQ4IDYuNDY3NzIsLTQuNzg3ODIgMTIuODg1MDgsLTkuODY5MDkgMTIuMDM5MDYsLTExLjUxODE2IC0wLjk4MTY5LC0xLjkxMzQ5IC0yLjE4OTkxLC0zLjc5NDE0IC00LjA3NTcyLC02Ljk2NTQ2IC0xMi41MzUyMywtMjEuMDgwMTggLTEyLjIzNTc4LC00OC42NjgyNyAwLjQzNzE5LC03NS44NDcwNSAxLjQ0NzQ3LC0zLjEwNDQ1IDMuMTI2NzIsLTYuNTQ5MzkgMy44MTc4NSwtNy42MDA1NyA1LjA0MjYyLC03LjY2OTYgNi4yNTA5LC05LjQ4NjQxIDIuNDA1MDIsLTE0LjA1NDQ0IC0xLjM4ODEsLTEuNjQ4NzUgLTMuMzk4MzgsLTMuNDY4ODYgLTQuNzUyMTYsLTQuNTM4NzQgLTcuMjgwMjUsLTUuNzUzNTMgLTEwLjkzODY4LC00Ljc4OTk1IC0zMC4wNjYzOCwtNC42NTM5OCAtMTAuMDU5OTMsMC4wNzE1IC0xNi41NjMxNiwtMC4wOTk1IC0xNi45ODQ1LC0wLjExNzgyIC0xLjc4OTQxLC0wLjA3NzggLTEuMDczOTQsLTAuNTA2MTMgLTEuNTcwOTYsLTMuNzU0MyAtMC41MDQ0LC0zLjI5NjMyIC0zLjEzODU1LC0xMi40NzggLTQuMTQxMzUsLTE1LjU1MDk5IC0xLjAxNDcsLTMuMTA5NDYgLTYuMDU1NzEsLTE1LjgzNjEyIC02LjY1MjMxLC0xNi45MzMzMyAtMC4yNjM4LC0wLjQ4NTA3IC0xLjMzMzA4LC0yLjcxMjYyIC0yLjM3NjA4LC00Ljk1MDA4IC0xNy4wMjgwNywtMzYuNTI5NzYgLTQ1LjAzMjQxLC01Ni42OTQyMyAtNzIuMjg0OTksLTU2Ljk4NTE2IHogbSAtMi4yMzE5MSwxMi41NjIwMyBjIDE5LjYxODA0LC0wLjYyODA5IDM5LjgxNTM3LDEyLjI4NTkyIDU0LjI1MjUsMzcuMjEyMiA3Ljk4MDEsMTMuNzc3NzggMTAuNDgxOTksMjMuNTAyMDUgMTIuNDMxMjksNDguMzIwNTYgMC43NzUzLDkuODcxMDQgMC45NjAzNCwxMC42MDQ1NyAzLjMxNDAxLDE0LjI0ODc0IDEuMjkxNTksMS45OTk4MiAxLjUyNTcsNC40MzY3NiAyLjQ4NTYzLC0yLjk3NjA0IDAuNTM3NjIsLTQuMTUxNTUgMS41NjU0NiwtMTEuMjU0ODQgMS4yOTAzNiwtMTcuMTU4NjQgLTAuMzM5NDEsLTcuMjg0MDEgMC4xNDIwNSwtNy4wNDc0MiAyLjkzNTIyLDEuNDQyMjkgMi45MzUsOC45MjAyNyA0LjY3OTg1LDEyLjAwMzM0IDEwLjcyODU1LDE4Ljk1Mzg4IDE0LjY2MjU0LDE2Ljg0ODc4IDI1LjA1NjY2LDUxLjkxODkyIDIwLjUyNTM2LDY5LjI1NDE3IC0yLjcyNjEsMTAuNDI4ODMgLTkuNTgyODcsMjEuNzQzMDEgLTE0LjEyODM0LDI2LjI4NTIxIC0zLjI2MTYxLDMuMjU5MzIgLTYuMTY2NTQsNS41NTUyNSAtNi4xNjY1NCw2LjMwODY2IDAsMS4xMjQ1NSAwLjk1MzY3LDEuMzY0MTQgNC42NjIyNCwxLjE3MDk5IDEuOTk1MywtMC4xMDM5MiA4Ljc4NzI0LC0wLjM0NjI3IDE1LjA5MzE0LC0wLjUzODQ3IDYuMzA1ODcsLTAuMTkyMiAxMS45ODEwMywtMC40NTk3IDEyLjYxMTYzLC0wLjU5NDI4IDIuMjE0NiwtMC40NzI2MyAxLjIxMjAyLDAuNzA4OTEgLTMuMTE4MTUsMy42NzM2OCAtMi4zNDU3LDEuNjA2MDIgLTcuMDY4MzcsNS4xNzMyMyAtMTAuNDk0OTcsNy45Mjc2OCAtNi4xMzE1Nyw0LjkyODg2IC0yMS40NjU5NiwxNS40MjA1MSAtMjguNDU1NjMsMTkuNDY5MSAtMS45NDAzLDEuMTIzODUgLTUuNTAwMzcsMy4zODk4NCAtNy45MTExNCw1LjAzNTM1IC0yLjQxMDksMS42NDU1MSAtNi42OTcyMyw0LjI1OTMyIC05LjUyNSw1LjgwODk1IC0yLjgyNzksMS41NDk2NCAtNS41Mzg0MSwzLjA4ODQxIC02LjAyMzQxLDMuNDE5NDMgLTEuOTcyNSwxLjM0NjA5IC05LjM0MzM3LDUuMzgyNzMgLTE0LjgxNjY3LDguMTE0MjMgLTMuMjAxNDcsMS41OTc3MSAtNS45Nzk3OCwzLjAyOTI3IC02LjE3Mzc4LDMuMTgxMiAtNC44MDA5OSwzLjA0NjEyIC05Ljg3NjUxLDQuODY0OTggLTE1LjAzMzcxLDcuNjk5MjcgLTEuODQ4NjMsMS4wMTYgLTMuOTE5NCwyLjEzNDU0IC00LjU4NjI4LDIuNTE3NjggLTEyLjAwOTQ3LDYuODk5NjkgLTE0LjYwNzEzLDcuMzc0MSAtMTcuMjM1MTIsOC42NzIzIDEuNDExNDQsLTEuMDEwODMgMy40NjYyOCwtMi41NDY5NSA3LjIzNjc2LC01LjM3NzkzIDIuNDk0MDQsLTEuODcyNjEgMTUuNTQ2NTgsLTE1LjA2MDE5IDE4LjAxMDI3LC0xOC4yNTI2MyAyLjY2MzcsLTMuNDUxNTggNS43MjA1NywtNi4zNDQ2MiAxMi44MDEyOSwtMTIuNDY2NDIgMS4yMDE5NSwtMC44OTg4NyAyLjIxOTI3LC0xLjY0NjMxIDMuNzQ2MDMsLTIuNzc5MTYgMy45OTcyOCwtMi45NjYwMSA0LjA4NjA2LC0zLjQzMjA1IDEyLjI4NTAzLC0xMC4zNTY5OSAxMC43NjQ0NywtOS4wOTE4NyAxNS44Mzc1MywtMTMuNzMyMDkgMjUuNTc4OCwtMjcuNjgzNTggMTIuNjIyNzcsLTE4LjA3ODM1IDE3LjE5MzEzLC00NC4wNzIwNyAxMS4wMDg2MywtNjIuNjExMTcgLTIuNzc5NzcsLTguMzMyODcgLTguMTgwMjUsLTE1LjE0MjM4IC02LjAwOTQ1LC03LjU3NzMxIDExLjA5MDY3LDM4LjY0OTEyIC01LjgxOTUyLDcwLjQwNDI5IC01OS4wOTA5NywxMTAuOTY1MzIgLTEwLjE3NTQ0LDcuNzQ3NjEgLTEyLjUzMDksOS40NzczMiAtMjAuMTQzNDcsMTQuNzkxMzQgLTU2Ljk0NDUxLDM5Ljc1MTAzIC05NC41NDcwNCw1Ni4wNDkxMyAtMTQyLjA0MjQ5LDYxLjU2NTczIC03LjA1NzIsMC44MTk3IC0zNC4wNjUwNSwxLjI0ODEgLTM5Ljc3OTQ5LDAuNjMxIC0wLjY3OTA3LC0wLjA3MyAtNC4xNzEyOCwtMC40NDkyIC03Ljc2MDc2LC0wLjgzNTEgLTMzLjgzMzI3LC0zLjYzNzcgLTUzLjE1NzQsLTE0LjY5MjMgLTU5LjgxNzAyLC0zNC4yMTkxIC0yLjA0MzI4LC01Ljk5MSAtMS45NjA0OSwtNy42NDg0OCAwLjMwNzQ3LC02LjE2MjQgMS4xNTUwMSwwLjc1NjggNy4zNjAyMSwyLjcyNzYgMTMuODI0NDgsNC4zOTA0IDMuMTA0NDQsMC43OTg2IDYuODM1MjUsMS43NzI2IDguMjkwNDUsMi4xNjQ3IDMuNzYzMjUsMS4wMTM4IDExLjUzNTg4LDIuMzMwNiAxOC41MjA4MywzLjEzNzggNTMuNDE4MTksNi4xNzMgMTA3LjM4MTE1LC03LjIyNzUgMTM2LjM0ODc5LC0zMy44NTk0IDMuMDA3NDMsLTIuNzY0OSA2Ljk3NTg0LC02LjMzNTcxIDguODE5MSwtNy45MzQ5MSAxOS4yNzgzLC0xNi43MjYwMSAzNC43NzA0NSwtMzcuNTcwNDIgNTEuMjUwNjIsLTY4Ljk1ODA3IDE4LjE5MjE0LC0zNC42NDgxNSAzNy4yNzk4LC00Ni42MjQ5MyA1Ny45MDY1NCwtMzYuMzMzNyA3Ljk1NzQ3LDMuOTcwMjMgMy42ODg5OCwtMTIuNzg3NzUgLTUuNzg1NjksLTIyLjcxMzg2IC05LjMyNTI3LC05Ljc2OTU3IC0yMi42NjQ1NywtMTMuNjk1OCAtMjUuNzgwMzQsLTcuNTg4MTYgLTMuMDI0Niw1LjkyODYzIC0yOS41NjE3MSwyNS4wNTA4OSAtNDMuMTI2MDUsMzEuMDc2MTMgQyAxMjUuOTE0MTgsNzAuOTUxMDggMTAzLjQxOTczLDY4Ljk1MDI2IDMyLjQ1MzYzLDQ0LjkwNjY5IDQuODYyMjIsMzUuNTU4NjIgLTcuOTIwODUsMzMuNDMzMDMgLTMzLjE2MzA0LDMzLjk5NTIyIGMgLTE1LjE0NTg2LDAuMzM3MzMgLTIyLjQ5MzIsMS40NjU3OSAtMzMuODk5MjIsNS4yMDY0IC04Ljc5NjA0LDIuODg0NjQgLTcuNzMxMiwyLjc1NDUyIC04LjYwMTU0LDEuMDQ4NTEgLTguNTgzOCwtMTYuODI1NjMgLTEwLjk3NjI1LC02MS40MDg5MSAtNC4zNTM3NCwtODEuMTM2MTMgNS4xOTAwOSwtMTUuNDYwMjYgMTEuNDAxNDcsLTIzLjYwOTI4IDIxLjAxNzMyLC0yNy41NzQ1NSAxMi4wNDQwNCwtNC45NjY1NSAyNS4zMDk5LC0zLjMyMzc1IDMzLjA0MjQzLDQuMDkyMjYgNC4zODg2Niw0LjIwOTAyIDMuOTY5MTcsNC4xMzIyMyA3Ljg5NDYxLDEuNDUyMTEgMTcuMzM2ODcsLTExLjgzNjgxIDMyLjE5NzExLC0zLjY5NDMgNDAuMzEwMiwyMi4wODgwNiAwLjY4ODY2LDIuMTg4NDIgMS43MjQxMyw1LjQ4MjQ5IDIuMzAxMTUsNy4zMTk5NiAxLjMyMjA3LDQuMjEwMDIgMy4yNzQwMyw2LjQzNTM3IDMuMTQyOTYsMy44NDY4IC0wLjMwODkyLC02LjEwMDk2IC0xLjA3MzI5LC04LjM2NTE3IC0xLjY5OTEyLC05LjY1Njc4IC0xLjA1OTQzLC0yLjE4NjQ1IC0wLjgwMzI0LC0yLjQyNzM2IDEuODMyOTYsLTIuMTMyNjggNC45MzE3OSwwLjU1MTI0IDI3Ljk0MDIzLDUuODEyNDggNDUuOTAzNjYsMTAuNDk2NTEgMjQuNjI0NDgsNi40MjA5NSAzNy4wNjUzNyw5LjE2MDk5IDUwLjM2NjQ0LDExLjA5NDQyIDcuOTQwMDcsMS4xNTQxMyA3LjQyNjI2LDEuMzkxNDkgOC4zNzQxNiwtMy44NjQ4OCAzLjU1ODM5LC0xOS43MzIyMyA5LjkxNDU4LC0zMy43NzkyMSAyMC4xMjI4LC00NC40NzExOSA5Ljk4NDI0LC0xMC40NTczNyAyMS41NDY1MywtMTUuNzA4OTkgMzMuMzE3MzUsLTE2LjA4NTg0IHogbSAtODIuNDg3OTksOS4zOTY4NCBjIDcuNTAxMTQsMC4zNTA4OSAxNS41Njc2Myw0LjMxNzk1IDIzLjYwMjcsMTIuMDc0MiBsIDMuODAzOSwzLjY3MjEzIC0wLjYyOTk0LDEuNzk2MjcgYyAtMC4zNDY1MSwwLjk4NzkgLTEuMzkwOTIsMy43ODA0OCAtMi4zMjEzLDYuMjA1ODIgLTIuMjEwMTMsNS43NjE0OSAtNC40ODU3NSwxMy4yNjA2MyAtNS4wMzA3LDE2LjU4MDM4IC0wLjQ4NjYyLDIuOTY0NDIgLTAuNTY3NjEsMy4wMjIwOSAtMy40MzI4NywyLjQzMjkzIC00LjM2MTU0LC0wLjg5Njg0IC00LjU4MzU3LC0zLjczNTIyIC02LjAzNTgxLC01Ljk3NzQxIC0zLjAwMDY4LC00LjYzMjk2IC02LjEwMjA5LC0xMC4zMzg2MiAtMTIuODk2ODgsLTEwLjM0NTYyIC00LjgzMjIzLC0wLjAwNSAtMTEuMjM3MTYsMy45NjgyMiAtMTQuOTAyOTcsNi41MTg5OCAtMS4zMTEwNywwLjkxMjI4IC0yLjg0Nzk1LDMuMDIxODkgLTUuNTI2MjgsMS45NDU2MiAtMS4xNDkxMSwtMC40NjE3NyAtMy4zNTkxMywtMS4xMjQ4OSAtNC45MTEzMiwtMS40NzMzIC0zLjczOTUxLC0wLjgzOTM1IC0zLjYzNTUxLC0wLjQ5MDMzIC0xLjc0NjY3LC01Ljg0NzcgNi41OTUyOCwtMTguNzA2NTggMTcuNTI2MywtMjguMTY3MTEgMzAuMDI4MTQsLTI3LjU4MjMgeiBtIDg5LjgyMzk4LDE1LjE2MzQyIGMgLTEyLjcxNTIxLDAuNDA4MjUgLTI1Ljg0NDc1LDcuNjQxNTQgLTM1LjU2NTI3LDIyLjE2NzEyIC02LjQ3MDg3LDkuNjY5NjQgLTEwLjk3MjI3LDIzLjc5MjQ5IC04LjIwMjA5LDI1LjczMjc5IDIuNDI5MjcsMS43MDE1MyA0LjIyMTYyLDAuNTAzMTEgNS45MDk3MiwtMy45NTExOCAxMS42MTEyNywtMzAuNjM2ODEgMzYuMDU3OTksLTQzLjM5MjY2IDU1LjkyNDIzLC0yOS4xODAxMyA5LjE0MjgsNi41NDA4NSAxNi43MjI0MSwyMy4zMTA3NCAxNy43NzQxMSwzOS4zMjQ3MyAwLjM2OTEsNS42MjA3MSAwLjMwOTAxLDUuNzAyMyAtMi44MjU2NiwzLjg1NDAzIC04LjY0NTk1LC01LjA5NzgyIC0xOS44NDA1MSwtOC41MzkxNSAtMjkuOTM4MjMsLTkuNTA2OTEgMC4wNzcxLC0wLjAyODcgMC4wMDYsLTAuMTkxNTYgMC4wMTAzLC0wLjI4NDc0IDAuMDE2MywtMC4yOTk3NSAwLjAyNDMsLTAuNjAxNTggMC4wMjQzLC0wLjkwNTM3IDAsLTkuMTQ4MDkgLTcuNDE1NzYsLTE2LjU2NDM2IC0xNi41NjM4NSwtMTYuNTY0MzYgLTkuMTQ4MDksMCAtMTYuNTY0MzYsNy40MTYyNyAtMTYuNTY0MzYsMTYuNTY0MzYgMCwxLjkzMzU0IDAuMzMxNTksMy43ODkyOSAwLjk0MDUxLDUuNTE0MzkgMC4wODM2LDAuMjM2NzEgMC4xNzIyMywwLjQ3MTE2IDAuMjY2MTMsMC43MDI4IDAuMDE0LDAuMDM0NSAwLjAxOSwwLjA4NTYgMC4wMjU4LDAuMTMzMzMgLTMuMjU1MDgsMS40MzA3IC01LjM0MDksMi45NTYzNCAtNS4zOTM5OSw0LjM1OTQyIC0wLjAyNTksMC42ODU2NiAtMC4xODk4LDEuMTY1ODYgLTAuNzI3NiwyLjI2MjQgLTEuMjE4OCwyLjQ4NTE0IC0xLjA1NDczLDIuNjE1MDQgMi4xMzgzNywxLjY4NzIzIDEuNDQwNCwtMC40MTg1MSAzLjExNTM4LC0wLjg0MDUxIDQuMDA1OTYsLTEuMDk5NjcgMC44NTY3MywtMC4yNDkzMyA3LjEwNjczLC0yLjk5MjQ5IDExLjE5Nzc2LC00LjAyMTk4IDIyLjQ3ODI0LC01LjY1NjQ4IDU0LjM2ODc5LDcuODk5MjIgNzQuNTc5NDMsMzEuNzAwOTEgMS44MTIzLDIuMTM0MzEgMy42MTcyMSw0LjE2MzM2IDQuMDEwNjEsNC41MDkyOCAxLjA0MDksMC45MTUzMyAxLjQ5OTEzLDAuNTU0NDcgMS40MjIxMywtMS4xMTk4MiAtMC4yMjc1LC00LjkyODIyIC0xMS41MDM0LC0yMC4zODI4MyAtMTkuMjQ2MzcsLTI2LjM3ODI0IC0yLjIwMiwtMS43MDUwMSAtMi4zNDI4OCwtMi4wMDc5MSAtMS40MTEyOCwtMy4wMzkwOSAyLjE3OTcsLTIuNDEyODYgMC40NTQ1MywtMjAuODExNDcgLTIuOTI0MzcsLTMxLjE4NTE4IC02Ljg1NDQzLC0yMS4wNDQxNCAtMjIuNTE4MjYsLTMxLjgwMTAyIC0zOC44NjYzNiwtMzEuMjc2MTIgeiBNIC00LjI4NzI4LC00OC4yNjE3OCBjIC0yLjkzNjUzLC0wLjI5NzU4IC01LjcyNzA5LDEuMzMwNjMgLTcuNjkyMDQsNS4yMzg5NiAtNC41MTQ2OCw4Ljk3OTg1IC00LjAxNDUsMTcuOTkxNjYgMC45OTgzOSwxNy45OTE2NiAwLjg1ODQ3LDAgMi44MTU4OSwtNC41NjkyNCA0LjQ1ODEzLC0xMC40MDY2IDAuNzMzNzEsLTIuNjA3OTUgMS4xODA5OSwtMi42MDQ3IDIuNDgxNSwtMC41MTQxOCAxLjE5MzMyLDEuOTE4MjQgMi4yNzIzNywzLjc3NzI4IDMuNjY1NDEsOC4wMDQ2OCAxLjIyNTIzLDMuNzE4MTQgMS43MDMyNCw0LjI4ODcxIDMuOTAxNTcsNC42NTU1MyA1LjgzNjE3LDAuOTczODQgNy4wNDA1MywtMS4yMzcyNSA0Ljk0MTMsLTkuMDcyODMgQyA1LjkwNjk5LC00MS45MiAwLjYwNjkzLC00Ny43NjU4MSAtNC4yODcyOCwtNDguMjYxNzggWiBtIC01OS4zMjcxMywwLjI2MzAzIGMgLTEuNjk1MDcsLTAuMDUyNCAtMy4zNDIwMywwLjU2MTcyIC00LjUyMjcyLDEuODU1NzEgLTMuNDkzNjgsMy44Mjg5NyAtNS43MDI5MiwxNi4yMjQwNiAtMy40MjQwOCwxOS4yMTE3NCAwLjg3MzA5LDEuMTQ0NjkgMS4wMTg4LDEuMjU4MDUgMi42MzQ5OCwxLjI5OTE1IDEuNTU2NDIsMC4wMzk2IDEuNjU1NjYsMC4yMTQyMSAyLjEwMzc1LC0xLjI1MjEyIDAuNTkzMDQsLTEuOTQwNjUgMS4yMDkyMywtMy43NjI1NiAxLjIwOTIzLC0zLjc2MjU2IDIuMTM2NzYsLTYuNTI2MDIgMi44NzgxMywtNy4xNDA5NSAzLjYwOTA4LC0yLjk5NDY1IDAuMjA4MzYsMS4xODE5NCAxLjAxMjk3LDMuNDI1NTUgMS42OTQ0Nyw1LjAyNzA4IDAuMjg3NDEsMC42NzU0MSAwLjYwMTA5LDEuMzAyNzUgMC45NDQxMywxLjkxODIzIDAuNjQzNDQsMS4xNTQ0NyAwLjYzODU5LDAuOTU5NjMgMS45MDA2NiwwLjk1OTYzIDQuNjMwNTEsMCAzLjYyMjE4LC0xNS4xNTc1NSAtMS4zMzg0MiwtMjAuMTE4MTUgLTEuMzcyOSwtMS4zNzI5IC0zLjExNTk4LC0yLjA5MTY3IC00LjgxMTA4LC0yLjE0NDA2IHogbSAxNjQuMDE3OSw0LjgyMDkgYyAxLjM3MzU0LDAuMTcyOTkgMi42MTIxOCwwLjk3MjIyIDQuMDE5OTEsMi40MDgxMiAwLjkxMjE5LDAuOTMwNDUgMi44MjI4LDQuMTkyOCAzLjU3NjAxLDUuNTkwMzYgMC43NTMyLDEuMzk3NTYgMS41MzYzNCwzLjM4NDQ5IDEuNTM2MzQsMy43ODE2OCAwLDAuNzMwNjcgLTEuNDc2OCwwLjcyMzUyIC0zLjUwODgzLDAuMjkzIC0yLjQzNTA5LC0wLjUxNTkyIC0zLjk5MjM1LC0wLjk3Mzk1IC02LjcwNzYsLTEuNTU4NTYgLTEzLjY4ODIyLC0yLjk0NzA4IC0xNC4wMjM4NiwtMi4xNzQxNiAtOC4zMTMxOSwtNi4yMTA0NyA0LjQ0NDY3LC0zLjE0MTUxIDcuMTA4MTMsLTQuNTkyNDUgOS4zOTczNiwtNC4zMDQxMyB6IG0gMTg3LjcxMjA2LDU4LjI5MjU2IGMgMC4zODMzNywtMC4wOTUxIDEuMjE3ODksMC4wMTEgMi41MTQ1NywwLjE3MzY0IDEuNjc3NSwwLjIxMDU0IDIuOTM3OTQsMC4zMDA3NCAxMS4yNDg5MywwLjIwNDY0IDguMTY1MTEsLTAuMDk0NCAxMS4zMDc0MiwwLjAwMyAxMS42MDY1MiwwLjMwMTc5IDAuNDY2NywwLjQ2NjczIDAuNjQ3OTMsLTAuMDY5IC0yLjg5NTk0LDguNTYzMyAtMi43MTQ1LDYuNjExOTQgLTUuNDI3ODUsMTUuMDcyMTIgLTUuNzk5NjUsMTguMDg0MTcgLTAuNTAwMSw0LjA1MTY1IC0xLjAwOTQ2LDMuMzI5NDYgLTYuMTU2NzMsLTguNzI4MTUgLTIuNDY5NSwtNS43ODQ4NSAtNi4zMDkxMiwtMTIuNDYwOTYgLTEwLjMyNzAyLC0xNy41NjQ4MiAtMC41MDYyNSwtMC42NDMxMiAtMC41NzQwNiwtMC45Mzk1MSAtMC4xOTA2OCwtMS4wMzQ1NyB6IE0gLTQyLjQxOTMyLDQyLjEyNDk1IGMgMS4wMzUyMSwwLjEwNTkxIDAuOTcyMiwwLjcxMzk1IDAuODA1MTIsMi4wNzg0MyAtMi4xMTcyNiwxNy4yOTE1NSAtNC4yNDI3OSwyNi4yNjgxOCAtNy40MDY3OCwzMS4yODAyNiAtMi43NTkzNyw0LjM3MTEyIC0xMS4wODI5LC0xMC40MDA3IC0xNC4xMTE4LC0yNC43OTkgLTAuNzQ0NzcsLTMuNTQwMzggLTEuNTUzODcsLTMuNzcxODIgNi41NzE2OSwtNS45NjM0NiAyLjI5NjIzLC0wLjYxOTM1IDUuNDg2ODgsLTEuNDY0MDggOS4yNjU1OCwtMi4wNTIwNyAxLjQ4NjU4LC0wLjIzMTM0IDIuNjAzNDcsLTAuNDAyOSAzLjQzODA0LC0wLjQ5MTk2IDAuNjI1OTIsLTAuMDY2OCAxLjA5MzA4LC0wLjA4NzUgMS40MzgxNSwtMC4wNTIyIHogbSAyNS43MTA1OCwwLjQxMzkzIGMgMi4zMzkxNiwtMC4wNzIyIDcuMjYzNDUsMC40MzEzMiAxMy4xMzcxOCwwLjkxMTU3IDcuNjMxMiwwLjYyMzk1IDEyLjQyOTI1LDEuMDgxMTEgMTMuMTk0MDMsMS44NDU4OSAxLjk4NDc4LDEuOTg0NzUgLTYuMDQ0OTksMjYuMDc4MTYgLTEwLjgwNDUxLDMyLjQxOTIgLTIuNTgzNzcsMy40NDIyOSAtMy42ODExNCwyLjAyMTM4IC05LjI4NzI5LC0xMi4wMjg3MiAtNC40Njg0MywtMTEuMTk4NjkgLTguMTY3OTQsLTIyLjI0NTI1IC03LjY1NjM4LC0yMi44NjE2NSAwLjE0NDY4LC0wLjE3NDMzIDAuNjM3MjUsLTAuMjYyMjEgMS40MTY5NywtMC4yODYyOSB6IE0gNTguMjEwMiw2Mi44MzUzMiBjIDAuNDU5OTQsLTAuMTc0OTIgMS4zMDY2NCwwLjA5NyAyLjg1NDYxLDAuNTg3MDQgMi4yOTg0OCwwLjcyNzU3IDUuNjE4ODQsMS42ODM1OCA5LjMwNTM3LDIuNDYzNDIgOC4xMDE2NywxLjcxMzc5IDEwLjEwMDM1LDEuNzAyNDYgMTAuMzY4MzYsMi40MDA4OCAwLjczMDUzLDEuOTAzNzIgLTkuNzIyMTEsMjIuMjcxOTIgLTEzLjU3NDM3LDI2LjQ1MTEgLTIuMjUyMDEsMi40NDMxNyAtMi4xNzM4OCwyLjQ5MzI5IC00LjEzMDQ5LC0yLjY1MjU1IC0yLjg0MTk2LC03LjQ3NDI3IC01LjM1NjI2LC0yMC4yMjIwMiAtNS4zNTYyNiwtMjcuMTU0OTMgMCwtMS4yOTc5IDAuMDcyOCwtMS45MjAwNCAwLjUzMjc4LC0yLjA5NDk2IHogbSA2Ni4zMjQxMiwxMC45MTUwOSBjIDEuMjE0NDksMC4yNzc1MiAtNi4zNzIyMSwxNi40MzA3MSAtOC4wNDE4OSwyMC4zMzgzIC0xLjMwMDQ3LDMuMDQzNTEgLTIuMDY2NjYsMi4zMjMwMiAtMy42MTczNSwtMC45Mzg5NyAtMS44MjQ4LC0zLjYyMzA2IC02LjUwNTcsLTE5LjQxMTAxIC01LjY4OTU4LC0xOS4yODcxOSAwLjI1NzY0LDAuMDM5MSA1LjMzNTc4LDAuMjkyOTEgOS42MDU2MiwwLjI0NzAxIDQuMTg1MTcsLTAuMDQ1IDYuNzMzMDUsLTAuNTg5OTcgNy43NDMyLC0wLjM1OTE1IHogbSAxNzQuNTU5MzcsMTUuNjkyNTggYyAwLjMwMzM1LC0wLjA1NjEgMC41MDQwMywxLjAxMDQ1IDAuNzE3NzgsMy4xNzc1OSAwLjM0MTYsMy40NjMyNSAzLjkzOTMxLDEyLjM1MTMgNi44MTI1MSwxNi44MzA1IDAuODk5NjYsMS40MDI0OCAwLjc5NTYxLDEuNDI0NjMgLTcuMzcyNjgsMS41NjE2NiAtNC4xMjgwOSwwLjA2OTMgLTguNDE4NjYsMC4yMDM0OCAtOS41MzQzLDAuMjk4MTcgLTIuNTc0NywwLjIxODY2IC0yLjU3OTc3LC0wLjA0MjIgLTAuMDYsLTIuOTkyMDcgNC4xNjkxLC00Ljg4MDMzIDYuNDYwODcsLTkuMjEyODkgOC4xMDI4NywtMTUuMzE4OTYgMC42MjQ0NSwtMi4zMjIxMiAxLjAzMDQyLC0zLjUwMDc5IDEuMzMzNzcsLTMuNTU2ODkgeiBtIC0yNTAuMDIzNSw0LjI1MjQ2IGMgNC4wOTM3LDguNzI5MDkgMTAuMDczOCwxMi4yMTA1MSAyNi4wNzkwMywxMi45NjE0OCAyNi41ODA2NCwxLjI0NzE4IDI2LjA4NzYsLTkuNTQ5NTQgMzQuNjUzMTgsLTIuMDIwNTUgNC42OTAzMSw0LjEyMjczIDIyLjQ5NjE0LDMuMjQwNTkgMjcuNTIwOCwyLjc3MDM4IDEzLjM4NjgzLC0xLjI1Mjc3IDIyLjQ4Njc5LC03Ljc3MDA1IDI3LjczNDc0LC0xMi45Mjk0NSAtMC4zNTIxOCwwLjgxMDUgLTEuMTg1NjgsMi43MjE1NCAtMS4zMTA1MSwzLjAyNTY2IC0xLjc2MDgsNC4yODk5NiAtMTIuNTUzOTcsMjEuMzI4NCAtMTcuNTM3NDMsMjguODI3NyAtOC42ODkzNiwxMy4wNzU5MyAtMjcuNzI3OTgsMzEuNTg1NDYgLTM2LjkyNDg4LDM2LjI2NiAtMi41NTUyLDEuMzAwNDEgLTIuOTAyOTksMS4wMzc2MSAtNS43NjYwNiwtNC4zNTk0MyAtNi42NDQwMSwtMTIuNTI0MzEgLTEzLjI4NzU5LC0xNS43MjgzMSAtMTkuNTgyNzgsLTkuNDQzODYgLTMuNTc5NzYsMy41NzM2MSAtNC45NDM5MiwxMC4zOTk1NSAtNS4yNzE1MiwyNi4zNzQxIC0wLjE4NTM3LDkuMDM4NzMgMC42ODc3Nyw2LjcxMDg0IC05LjM5Mzc0LDEwLjU1MzM2IC00LjM4OTA3LDEuNjcyODggLTUuNjY5NDksMy41MDc2NCAtNy41NjI4NCwtMS41MTUxNSAtMS41MzgxMSwtNC4wODAzNiAtNC40Mzg0NywtMTAuNzUzNjkgLTYuNTUzNjEsLTE0Ljk2NjUzIC04LjI2Mjg3LC0xNi40NTc3NiAtMTguNTM0NDcsLTE0LjkyMjk1IC0yNi43NDgyNCwzLjEzODgyIC0xLjEyODk0LDIuNDgyNDkgLTEuOTA0Niw1LjA0ODU5IC0yLjg1MzU3LDguOTkyMjIgLTEuMDIwMTUsNC4yMzk0NSAtMS41OTM1OCw0LjY0OTk5IC03LjIyNjQzLC00LjE0MDgzIEMgMTAuOTU4LDE2NS43MzAxIDguOTM2NTksMTYzLjg5MDU1IDUuMjEyOTIsMTY1LjI5NDE4IGMgLTMuNzIyNjEsMS40MDMyMiAtNS45NjgyOSwzLjU4MjQ0IC04LjEzMzM2LDcuODkwOTkgLTEuOTQ4NDIsMy44Nzc0NSAtMy4wOTQ3NSwzLjc3MTc1IC0zLjQ0NTc4LC0wLjMxNzgxIC0wLjEwNzc5LC0xLjI1NTc5IC0wLjQ1MDQxLC0zLjI5OTc2IC0wLjc2MTcxLC00LjU0MTg0IGwgLTAuNTY1ODYsLTIuMjU4MjYgMS4wMjM3MSwtMC43MTE1OSBjIDQuOTA3MTIsLTMuNDEwNTEgMTIuMjc0MDEsLTEyLjkzMjc5IDIyLjcxOTU0LC0yOS4zNjY2OCAzLjc1NDc0LC01LjkwNzI4IDExLjYxMjY0LC0xNy42NTExNSAxMy4xODAwOCwtMTkuNjk4MDIgNy41ODAzMiwtOS44OTg5MiAxMy40Nzk4OSwtMTYuNjkwNjYgMTQuNzM2MDUsLTE3LjkwMjc5IDEuNDU3MzYsLTEuNDA2MjQgMy4xMDE0NywtMy4wMDIgNS4xMDQ2LC00LjY5MjczIHogbSA0MS45MzQ5MSw1OC40ODUzMiBjIDIuMDM1OTYsMC4xNzA2NyAzLjIwMDQ4LDEuMjYzODUgNS4wNTgwOSw0Ljc0OTA2IDAuNTk2MzYsMS4xMTg4OSAxLjgzNDQ2LDMuMTQxMDUgMi43NTE3Nyw0LjQ5MzI3IDYuMjcwNjUsOS4yNDM2MiA2LjE1NzYyLDguOTUzMiAzLjkyOTQ3LDEwLjA4NDE0IC0wLjgyNDYyLDAuNDE4NTUgLTIuMTM0MzEsMS4xODY5OCAtMi45MTA0MiwxLjcwNzM5IC0yLjA1NzY1LDEuMzc5NzQgLTguODk1ODQsNS4xNDY1NiAtMTAuODc2ODUsNS45OTEzNiAtMi42Mzc2NiwxLjEyNDgyIC0zLjMwOTk0LDAuOTk5MDUgLTMuNzY4NzYsLTAuNzA0ODcgLTAuNDA1NjMsLTEuNTA2MzYgLTAuNTQ4MTYsLTguNTQxMDMgLTAuMTg1LC05LjEyODY0IDAuMTE2NTQsLTAuMTg4NTYgMC40NTA2OCwtMy40MDU4MSAwLjc0MzEsLTcuMTQ5OTUgMC43MTM5NCwtOS4xNDExNyAxLjM1NzIyLC0xMC4zNjg4MSA1LjI1ODYsLTEwLjA0MTc2IHogbSAtMTQxLjU4NjcxLDUuODA4OTQgYyAzLjY0MjE2LDEuMjg3ODkgMTAuMDk5NiwyMy45MjY2MSA4LjQ5NjY0LDMxLjExNTQyIC0wLjMyMjA0LDEuNDQ0MjQgLTEuMTU4NzMsMS42NjE1OCAtMy40MjUxMSwwLjg5MDM4IC0wLjc3NjExLC0wLjI2NDA5IC0zLjk4NDU2LC0xLjMwMjUgLTcuMTI5OCwtMi4zMDc4NyAtNi45NDc5NywtMi4yMjA4NiAtNi42NDI0OSwtMS45MDM0MyAtNi41NzQ3OSwtNi44MzkzNyAwLjEyOTQzLC05LjQzMzY3IDQuMDY3NjIsLTIwLjc0NTU5IDcuOTQ1MjUsLTIyLjgyMDgzIDAuMjE0NTYsLTAuMTE0ODMgMC40NDUsLTAuMTIzNjEgMC42ODc4MSwtMC4wMzc3IHogbSA5NC4xNzc3MSw1LjkwODY5IGMgMi42NTE3MSwwLjQwMjAyIDUuNDY4MTUsNC40Mzc5NSA4Ljc1MTQxLDEyLjAzMzg5IDEuMjE2MzMsMi44MTQwMSAxLjg0MjI0LDQuNjEyNDMgNC4zNzM4OSwxMi41NjY2NyAwLjUzODY1LDEuNjkyNCAwLjgyMjIzLDIuNzMyMTggMC40MTA4MywyLjk0ODY2IC0yLjQyNjc3LDEuMjc2OTIgLTEwLjgwNTA2LDIuNTA1NTIgLTEzLjIyNzEsMi44MDY1MiAtMi40MjIwNCwwLjMwMSAtMTMuMjcyNDIsMi4xMzU5IC0xMy41ODE2LDEuMDY1MSAtMC4zMDkxNywtMS4wNzA5IC0wLjcwNywtMS43NDg2IDMuMjE4OTIsLTE0Ljc5MzQzIDMuNTA3NDEsLTExLjY1NDExIDYuNjQ0MzMsLTE3LjE0NDI5IDEwLjA1MzY1LC0xNi42Mjc0MSB6IG0gLTYxLjYyNzI0LDEuMzc2MTQgYyAxLjk4OTEzLDAuMzAwMjUgMy40Nzg3OSwyLjQwMTY2IDUuMTQ1OTQsNi40MDYzMyAyLjkzNjgyLDcuMDU0NTkgNS42MzA2OCwyMi41OTU0NyA0LjE2OTc3LDI0LjA1NjM3IC0wLjQwMTM3LDAuNDAxNiAtNS4wMTAyNCwwLjI5NDkgLTcuNjM0NjgsLTAuMDI3IC0yMS4wODg0MSwtMi41ODc4IC0xOS45ODY0MiwtMi4xODMzIC0xOS42NjY1LC01Ljg0Nzc0IDAuOTI4NiwtMTAuNjM2MiAyLjQyNjYxLC0xMy43MDg3NyA5Ljg0Mzg1LC0yMC4xODY4OCAzLjY2Mzg2LC0zLjE5OTk3IDYuMTUyNDgsLTQuNzAxMDEgOC4xNDE2MiwtNC40MDA3NiB6IG0gMjQuNjkxNTEsNS4xMzM1NCBjIDAuODM2NzUsMCAyLjk5ODUsMi43MDkwMSA1LjM0OCw2LjcwMjQzIDEuMzEyNzcsMi4yMzEzMiAzLjE4MjE3LDUuNDA2NjcgNC4xNTM3NSw3LjA1NTkgMC45NzE1OCwxLjY0OTI0IDIuNzY2ODEsNC4zOTU4NiAzLjk4OTQyLDYuMTAzNSAzLjM1Njg5LDQuNjg4NzMgMy40NjM5Niw2LjQxOTgzIDAuNDE3NTUsNi43MzI5MyAtNS4yODU4OSwwLjU0MzIgLTIxLjg2MjYxLDAuMzQ0MyAtMjIuODIxODcsLTAuMjczOSAtMi41NTA3MiwtMS42NDM4IDUuODA1NzUsLTI2LjMyMDg2IDguOTEzMTUsLTI2LjMyMDg2IHoiIHN0eWxlPSJkaXNwbGF5OmlubGluZTtmaWxsOiMwMDAwMDA7ZmlsbC1vcGFjaXR5OjE7c3Ryb2tlOm5vbmU7c3Ryb2tlLXdpZHRoOjAuMjtzdHJva2UtbGluZWNhcDpyb3VuZDtzdHJva2UtbGluZWpvaW46YmV2ZWw7c3Ryb2tlLW9wYWNpdHk6MSIgaWQ9InBhdGg0Ii8+JiN4YTsgICAgPC9nPiYjeGE7ICA8L2c+JiN4YTs8L3N2Zz4=;" vertex="1" parent="1">
          <mxGeometry x="207" y="200" width="28.52" height="23" as="geometry" />
        </mxCell>
      </root>
    </mxGraphModel>
  </diagram>
</mxfile>
